<?xml version="1.0" encoding="UTF-8"?>
<svg version="1.1" xmlns="http://www.w3.org/2000/svg" width="512" height="512">
<path d="M0 0 C2.50483706 1.63741879 2.50483706 1.63741879 6.26171875 2.2109375 C23.71918577 6.37988485 37.02268901 36.66934806 45.58935547 50.57234192 C54.69640423 65.40916518 63.58592755 80.37834866 72.38671875 95.3984375 C72.93360352 96.33010742 73.48048828 97.26177734 74.04394531 98.22167969 C81.24598717 110.49628359 88.35985011 122.81929228 95.40438843 135.18478394 C100.05578189 143.34878191 104.75795894 151.48099115 109.51171875 159.5859375 C114.840539 168.67627793 120.015853 177.84419755 125.14160156 187.05029297 C129.6626244 195.15161328 134.30845879 203.17356009 139.00048828 211.17675781 C143.46950804 218.80642891 147.88008006 226.4683558 152.26171875 234.1484375 C152.59441772 234.73142609 152.9271167 235.31441467 153.26989746 235.91506958 C155.98435565 240.67225841 158.695984 245.43105851 161.4074707 250.18994141 C163.7742331 254.34352729 166.14224339 258.49639864 168.51171875 262.6484375 C168.84276611 263.2286969 169.17381348 263.8089563 169.51489258 264.40679932 C174.21481882 272.64143542 178.96950119 280.84222665 183.76171875 289.0234375 C201.41240301 319.20137331 216.42854197 347.78808579 209.26171875 384.0859375 C208.69334567 386.20610127 208.06621448 388.31123173 207.38671875 390.3984375 C207.08870361 391.34154785 207.08870361 391.34154785 206.78466797 392.30371094 C199.01132991 416.44472935 182.82862546 436.4061991 160.38671875 448.3984375 C136.61209731 460.30365979 109.98159205 463.39149904 84.38671875 455.3984375 C70.53320201 450.76961681 58.22199337 443.098757 47.38671875 433.3984375 C46.43732422 432.57279297 46.43732422 432.57279297 45.46875 431.73046875 C34.04665975 421.1447787 26.93972687 405.94580145 19.35308838 392.60679626 C15.89194288 386.52133281 12.38980036 380.45982048 8.88671875 374.3984375 C7.63525227 372.22926151 6.38395043 370.05999051 5.1328125 367.890625 C2.64740973 363.58242099 0.16029898 359.27520961 -2.328125 354.96875 C-7.44198128 346.11601154 -12.55490181 337.26293593 -17.62109375 328.3828125 C-17.95578674 327.79619843 -18.29047974 327.20958435 -18.63531494 326.60519409 C-19.98269758 324.24312238 -21.32983512 321.88091299 -22.67553711 319.5178833 C-26.31110812 313.13465787 -29.97002549 306.76652604 -33.69921875 300.4375 C-34.34753662 299.3355127 -34.99585449 298.23352539 -35.66381836 297.09814453 C-36.89188561 295.01572128 -38.12425099 292.93582481 -39.36157227 290.85888672 C-39.90740967 289.93350098 -40.45324707 289.00811523 -41.015625 288.0546875 C-41.49507568 287.24837891 -41.97452637 286.44207031 -42.46850586 285.61132812 C-43.54886145 283.52296321 -44.15939696 281.69575493 -44.61328125 279.3984375 C-45.27328125 279.3984375 -45.93328125 279.3984375 -46.61328125 279.3984375 C-46.81566406 280.16671875 -47.01804688 280.935 -47.2265625 281.7265625 C-49.17583979 286.88802914 -51.97935823 291.41936302 -54.80078125 296.1484375 C-56.07747903 298.31211299 -57.35349796 300.47618916 -58.62890625 302.640625 C-59.28826172 303.75663086 -59.94761719 304.87263672 -60.62695312 306.02246094 C-63.80253481 311.4197008 -66.92704685 316.8460775 -70.05078125 322.2734375 C-71.30986473 324.45835126 -72.56897948 326.64324699 -73.828125 328.828125 C-74.76567627 330.45572754 -74.76567627 330.45572754 -75.72216797 332.11621094 C-78.85008273 337.54503692 -81.98186573 342.97163031 -85.11328125 348.3984375 C-86.36330004 350.56509333 -87.61330003 352.73176 -88.86328125 354.8984375 C-91.36328125 359.23177083 -93.86328125 363.56510417 -96.36328125 367.8984375 C-96.98243408 368.9719043 -97.60158691 370.04537109 -98.23950195 371.15136719 C-99.48449298 373.30881092 -100.73041785 375.46571605 -101.97729492 377.62207031 C-105.18696622 383.17570431 -108.37780894 388.73895677 -111.5390625 394.3203125 C-126.94654698 421.45280796 -144.31155172 446.63373332 -175.875 455.68359375 C-203.16329516 462.92258499 -231.36999218 460.10148114 -255.97143555 445.90551758 C-261.60064571 442.53437176 -266.74100687 438.80510204 -271.61328125 434.3984375 C-272.43054688 433.67398437 -273.2478125 432.94953125 -274.08984375 432.203125 C-291.34030093 416.02080758 -300.99747514 393.87478291 -301.99609375 370.36328125 C-302.30945758 357.20029287 -302.11774834 344.86428829 -297.61328125 332.3984375 C-297.29746094 331.45871094 -296.98164063 330.51898438 -296.65625 329.55078125 C-290.20399747 312.36894025 -279.5087834 296.36105223 -270.24609375 280.59375 C-266.52302431 274.255883 -262.84497816 267.8926095 -259.17578125 261.5234375 C-258.55340576 260.44352539 -257.93103027 259.36361328 -257.28979492 258.25097656 C-256.0278219 256.06097201 -254.76602206 253.87086766 -253.50439453 251.68066406 C-250.37647977 246.25183808 -247.24469677 240.82524469 -244.11328125 235.3984375 C-242.86326246 233.23178167 -241.61326247 231.065115 -240.36328125 228.8984375 C-212.86328125 181.23177083 -185.36328125 133.56510417 -157.86328125 85.8984375 C-157.24412842 84.82505127 -156.62497559 83.75166504 -155.98706055 82.64575195 C-154.74178753 80.48765731 -153.49586057 78.32993987 -152.24926758 76.17260742 C-149.04637086 70.62776267 -145.85645431 65.07604125 -142.6875 59.51171875 C-125.34728735 29.11651841 -107.91808306 2.59816439 -72.42773438 -7.52172852 C-49.42340026 -13.6579551 -20.85994028 -12.78411885 0 0 Z " fill="#000101" transform="translate(301.61328125,31.6015625)"/>
<path d="M0 0 C0.90363281 0.42539062 1.80726563 0.85078125 2.73828125 1.2890625 C22.07118745 11.10577135 32.64120296 35.7627498 43.07324219 53.69628906 C45.35723913 57.61253927 47.66977794 61.51125441 49.98608398 65.40844727 C57.13271066 77.44050219 64.12018127 89.56338738 71.09716797 101.69433594 C72.96919421 104.94648313 74.84513035 108.1963377 76.72265625 111.4453125 C83.54078847 123.24499469 90.32616048 135.0625109 97.0753479 146.90170288 C101.70856892 155.0266064 106.39374412 163.1192745 111.125 171.1875 C116.5489045 180.43904551 121.81479016 189.77132889 127.03393555 199.13964844 C130.64848775 205.61726767 134.33219539 212.04422008 138.11572266 218.42431641 C145.89475183 231.54967153 153.46638459 244.79882676 161.02734375 258.05078125 C161.52712486 258.92669167 161.52712486 258.92669167 162.03700256 259.82029724 C163.38084865 262.17594262 164.72450765 264.53169317 166.06692505 266.88815308 C170.2429827 274.21772396 174.46516819 281.51784843 178.74633789 288.78662109 C191.72509464 310.85696293 202.78168548 331.93518563 196.875 358.25 C196.29620437 360.18112188 195.6675496 362.0977346 195 364 C194.57460938 365.22460938 194.14921875 366.44921875 193.7109375 367.7109375 C190.83669681 375.58428635 187.31562111 382.46781405 182 389 C181.34386719 389.83015625 180.68773437 390.6603125 180.01171875 391.515625 C168.39765361 405.35908107 150.99648763 414.93961185 133 417 C109.83642729 418.44865671 90.23666915 413.91298431 72.46484375 398.359375 C62.20988485 388.54321783 55.82823107 376.55369581 48.87792969 364.30419922 C45.77994553 358.85332589 42.63664513 353.42868364 39.5 348 C38.23955834 345.8125144 36.97914161 343.62501443 35.71875 341.4375 C32.16618588 335.27972218 28.58701921 329.13775469 25 323 C16.97718322 309.26953183 9.04141672 295.48921914 1.10449219 281.70898438 C-7.88117414 266.11034959 -16.91610142 250.54162208 -26 235 C-35.08555194 219.45554919 -44.12184989 203.88385224 -53.10888672 188.28222656 C-55.61334301 183.93547851 -58.12029442 179.59017282 -60.62768555 175.24511719 C-61.87573262 173.08198749 -63.1232914 170.91857599 -64.37036133 168.75488281 C-67.51062509 163.3074447 -70.65821829 157.86448649 -73.8203125 152.4296875 C-81.66050051 138.93533447 -89.26195729 125.33911508 -96.61328125 111.57226562 C-97.84404755 109.28928081 -99.10006861 107.02413747 -100.375 104.765625 C-111.21528794 85.45395405 -115.01463959 68.25874166 -109.97265625 46.42578125 C-104.28361982 26.38849228 -91.84296654 10.65592763 -74 0 C-49.97252534 -13.15036637 -24.0714012 -11.66010431 0 0 Z " fill="#81BBF3" transform="translate(293,52)"/>
<path d="M0 0 C0.66 0 1.32 0 2 0 C2.11214844 0.804375 2.11214844 0.804375 2.2265625 1.625 C6.57018182 27.51637791 23.14434004 50.85083134 36.25439453 73.04101562 C39.16561403 77.97583805 42.05131095 82.92551007 44.9375 87.875 C45.51242188 88.86000488 46.08734375 89.84500977 46.6796875 90.85986328 C50.97611823 98.22671096 55.24268399 105.61049221 59.5 113 C64.58434938 121.82409393 69.68534756 130.63819784 74.8125 139.4375 C75.40546875 140.45650391 75.9984375 141.47550781 76.609375 142.52539062 C77.15722656 143.46447266 77.70507812 144.40355469 78.26953125 145.37109375 C78.75010986 146.19536865 79.23068848 147.01964355 79.72583008 147.86889648 C80.76699718 149.61029285 81.87456125 151.31184188 83 153 C82.69358076 157.44193849 81.39592137 160.55889692 79.1484375 164.359375 C78.25415039 165.88884766 78.25415039 165.88884766 77.34179688 167.44921875 C76.69275391 168.53847656 76.04371094 169.62773437 75.375 170.75 C74.69497822 171.90697352 74.01595953 173.06453713 73.33789062 174.22265625 C71.92932676 176.62665148 70.51649359 179.02805773 69.10058594 181.42773438 C65.85983069 186.928348 62.68326639 192.46599434 59.5 198 C58.26334643 200.14471902 57.02636535 202.28924924 55.7890625 204.43359375 C55.17192383 205.50335449 54.55478516 206.57311523 53.91894531 207.67529297 C52.25735087 210.55412161 50.59475109 213.43236422 48.93145752 216.31021118 C47.90654597 218.08362608 46.88193877 219.85721646 45.85742188 221.63085938 C44.57547262 223.84995773 43.29295893 226.06873016 42.00976562 228.28710938 C38.617222 234.16127054 35.26927827 240.0562835 32 246 C31.34 246 30.68 246 30 246 C29.8040625 244.9584375 29.608125 243.916875 29.40625 242.84375 C24.31730855 217.76190641 10.16218771 196.43000425 -11 182 C-26.92022903 171.92700278 -44.01435575 166.57544873 -62.875 166.75 C-64.4520874 166.75906372 -64.4520874 166.75906372 -66.06103516 166.76831055 C-77.22041987 166.91067165 -87.39122792 168.40786499 -98 172 C-96.5839494 168.21481268 -94.84578935 164.80250679 -92.83203125 161.30078125 C-92.19386475 160.18751465 -91.55569824 159.07424805 -90.89819336 157.92724609 C-90.20304466 156.72228318 -89.5078113 155.5173691 -88.8125 154.3125 C-88.09031382 153.05565201 -87.3683941 151.79865088 -86.64672852 150.54150391 C-84.79256933 147.31362852 -82.93436047 144.08810651 -81.07458496 140.86346436 C-79.42607817 138.00474796 -77.77968312 135.14481546 -76.1328125 132.28515625 C-73.04520824 126.92721891 -69.95279067 121.57207499 -66.85888672 116.21777344 C-63.73675395 110.81329355 -60.61858796 105.40652588 -57.5 100 C-56.25001878 97.8333225 -55.00001879 95.66665583 -53.75 93.5 C-53.13125 92.4275 -52.5125 91.355 -51.875 90.25 C-50 87 -48.125 83.75 -46.25 80.5 C-45.63116943 79.42733887 -45.01233887 78.35467773 -44.37475586 77.24951172 C-43.12564482 75.08442929 -41.87645871 72.91939018 -40.62719727 70.75439453 C-37.48797691 65.31384294 -34.35009437 59.87252784 -31.21484375 54.4296875 C-29.95583458 52.24473092 -28.69672048 50.0598348 -27.4375 47.875 C-26.82269775 46.80822021 -26.20789551 45.74144043 -25.57446289 44.64233398 C-20.6654335 36.13339276 -15.71904363 27.64655797 -10.74194336 19.17724609 C-7.03600338 12.85052162 -3.47599443 6.45586469 0 0 Z " fill="#FDDD75" transform="translate(160,133)"/>
<path d="M0 0 C2.50452916 2.19098505 4.88934575 4.45214598 7.24609375 6.80078125 C8.29216797 7.81205078 8.29216797 7.81205078 9.359375 8.84375 C21.10939893 21.00445438 27.5593669 37.67052058 27.62109375 54.48828125 C27.1651312 76.8304461 19.02706485 96.81593118 3.01635742 112.56811523 C-6.20261511 121.19970956 -16.76782556 126.12808669 -28.75390625 129.80078125 C-29.83542969 130.16945313 -30.91695313 130.538125 -32.03125 130.91796875 C-36.73556073 132.03357654 -41.12502772 132.10146173 -45.94140625 132.05078125 C-46.8739624 132.04328857 -47.80651855 132.0357959 -48.76733398 132.02807617 C-69.40795807 131.70671654 -87.25436472 124.09234518 -102.0625 109.62109375 C-116.82566622 94.15083829 -123.37234628 73.43190003 -123.0390625 52.3359375 C-122.61746167 42.38912403 -119.37142888 32.57407424 -114.75390625 23.80078125 C-114.2846875 22.88039063 -113.81546875 21.96 -113.33203125 21.01171875 C-104.58596247 4.89396342 -90.37448694 -8.34100744 -72.75390625 -14.19921875 C-46.97507419 -20.89466724 -21.09387336 -16.8451783 0 0 Z " fill="#B4DF8B" transform="translate(143.75390625,337.19921875)"/>
<path d="M0 0 C0.33 0 0.66 0 1 0 C1.03867188 1.43666016 1.03867188 1.43666016 1.078125 2.90234375 C2.21497499 32.74844557 16.57016003 55.52040885 31.296875 80.6640625 C35.03634615 87.05282035 38.74119496 93.46119232 42.4375 99.875 C43.36973389 101.49220947 43.36973389 101.49220947 44.32080078 103.14208984 C46.8464552 107.52463201 49.37095429 111.90783923 51.89550781 116.29101562 C58.56956312 127.87681766 65.25464084 139.45553353 72 151 C78.74701194 162.54729516 85.43339318 174.12902027 92.10888672 185.71777344 C95.23680148 191.14659942 98.36858448 196.57319281 101.5 202 C102.75001879 204.16665583 104.00001878 206.3333225 105.25 208.5 C105.86875 209.5725 106.4875 210.645 107.125 211.75 C127.75 247.5 127.75 247.5 129.62524414 250.75048828 C130.87435518 252.91557071 132.12354129 255.08060982 133.37280273 257.24560547 C136.51202309 262.68615706 139.64990563 268.12747216 142.78515625 273.5703125 C150.64229647 287.20726644 158.52097614 300.83109554 166.48535156 314.40576172 C167.84436186 316.73342828 169.1869971 319.06948874 170.5234375 321.41015625 C183.02163945 343.1112143 200.69005659 358.09254912 225 365 C242.15500653 369.2457021 263.3470481 369.18094958 279.33203125 360.7734375 C281 360 281 360 284 361 C271.81991508 376.07560898 254.47198242 386.77068489 235 389 C211.83642729 390.44865671 192.23666915 385.91298431 174.46484375 370.359375 C164.20988485 360.54321783 157.82823107 348.55369581 150.87792969 336.30419922 C147.77994553 330.85332589 144.63664513 325.42868364 141.5 320 C140.23955834 317.8125144 138.97914161 315.62501443 137.71875 313.4375 C134.16618588 307.27972218 130.58701921 301.13775469 127 295 C118.97718322 281.26953183 111.04141672 267.48921914 103.10449219 253.70898438 C94.11882586 238.11034959 85.08389858 222.54162208 76 207 C66.91444806 191.45554919 57.87815011 175.88385224 48.89111328 160.28222656 C46.38665699 155.93547851 43.87970558 151.59017282 41.37231445 147.24511719 C40.12426738 145.08198749 38.8767086 142.91857599 37.62963867 140.75488281 C34.48937491 135.3074447 31.34178171 129.86448649 28.1796875 124.4296875 C20.33949949 110.93533447 12.73804271 97.33911508 5.38671875 83.57226562 C4.15595245 81.28928081 2.89993139 79.02413747 1.625 76.765625 C-9.22510911 57.43645791 -12.96359715 40.30756035 -7.9921875 18.45703125 C-6.12065609 11.93614424 -3.77289421 5.65934131 0 0 Z " fill="#6EA9E4" transform="translate(191,80)"/>
<path d="M0 0 C1.1637112 3.70021406 0.52726229 6.04574942 -0.49316406 9.76953125 C-3.35262779 22.35337547 -0.91341469 35.95282145 3 48 C3.56074219 49.72863281 3.56074219 49.72863281 4.1328125 51.4921875 C7.96051533 62.26552329 13.6288859 70.96731291 21.49609375 79.22265625 C23 81 23 81 23 83 C23.88558594 83.39832031 23.88558594 83.39832031 24.7890625 83.8046875 C27.05716052 85.03090304 28.53352098 86.33351588 30.375 88.125 C47.28922895 103.21576188 69.63989352 109.05867349 91.83984375 108.14306641 C96.31125766 107.8469262 100.65877379 107.09262323 105 106 C96.77199002 117.3740138 84.09746165 123.08491242 71 127 C69.37964844 127.55107422 69.37964844 127.55107422 67.7265625 128.11328125 C63.02028135 129.23311964 58.63159868 129.30070911 53.8125 129.25 C52.87994385 129.24250732 51.9473877 129.23501465 50.98657227 129.22729492 C30.34594818 128.90593529 12.49954153 121.29156393 -2.30859375 106.8203125 C-17.07175997 91.35005704 -23.61844003 70.63111878 -23.28515625 49.53515625 C-22.86395396 39.59774534 -19.6315899 29.75874922 -15 21 C-14.49597656 20.04480469 -13.99195313 19.08960938 -13.47265625 18.10546875 C-9.69787866 11.30059758 -5.42156034 5.57646206 0 0 Z " fill="#9BCA6A" transform="translate(44,340)"/>
<path d="M0 0 C3.59231801 1.19743934 4.37782044 2.78758861 6.328125 5.91796875 C7.55471379 9.71896774 6.40890063 13.13309879 4.74755859 16.65527344 C4.21984863 17.54762695 3.69213867 18.43998047 3.1484375 19.359375 C2.55224609 20.37902344 1.95605469 21.39867187 1.34179688 22.44921875 C0.69275391 23.53847656 0.04371094 24.62773437 -0.625 25.75 C-1.30502178 26.90697352 -1.98404047 28.06453713 -2.66210938 29.22265625 C-4.07067324 31.62665148 -5.48350641 34.02805773 -6.89941406 36.42773438 C-10.14016931 41.928348 -13.31673361 47.46599434 -16.5 53 C-17.73665357 55.14471902 -18.97363465 57.28924924 -20.2109375 59.43359375 C-20.82807617 60.50335449 -21.44521484 61.57311523 -22.08105469 62.67529297 C-23.74264913 65.55412161 -25.40524891 68.43236422 -27.06854248 71.31021118 C-28.09345403 73.08362608 -29.11806123 74.85721646 -30.14257812 76.63085938 C-31.42452738 78.84995773 -32.70704107 81.06873016 -33.99023438 83.28710938 C-37.382778 89.16127054 -40.73072173 95.0562835 -44 101 C-44.66 101 -45.32 101 -46 101 C-46.1959375 99.9584375 -46.391875 98.916875 -46.59375 97.84375 C-49.61172795 82.97592466 -55.96910847 70.78822894 -64 58 C-62.86304688 57.33355469 -61.72609375 56.66710937 -60.5546875 55.98046875 C-36.06946514 41.44494933 -16.20266757 23.47526366 0 0 Z " fill="#FCCA65" transform="translate(236,278)"/>
</svg>
