<?xml version="1.0" encoding="UTF-8"?>
<svg version="1.1" xmlns="http://www.w3.org/2000/svg" width="512" height="512">
<path d="M0 0 C2.44907927 -0.0293463 4.89807748 -0.06628263 7.34693909 -0.11018372 C13.28053504 -0.19487718 19.21048222 -0.19581434 25.14420293 -0.15383124 C29.97199728 -0.12122609 34.79865704 -0.12306037 39.62648392 -0.14879036 C40.31658316 -0.15241472 41.00668241 -0.15603909 41.71769375 -0.15977328 C43.1201479 -0.16724614 44.52260172 -0.17477911 45.92505522 -0.1823715 C59.0433534 -0.24904601 72.15943659 -0.2035721 85.27752145 -0.12061257 C96.50209982 -0.05248406 107.72257312 -0.08747387 118.94677734 -0.19628906 C132.018574 -0.32300451 145.08782882 -0.37988141 158.16023219 -0.33121544 C159.55780603 -0.32623715 160.95538026 -0.32136707 162.35295486 -0.31660652 C163.04036532 -0.3142517 163.72777578 -0.31189688 164.43601685 -0.30947069 C169.24996694 -0.29785922 174.06202602 -0.33570333 178.87559128 -0.39379692 C185.37367524 -0.47098147 191.86547394 -0.43584394 198.36315727 -0.32783318 C200.7365127 -0.30500756 203.11052871 -0.31733467 205.48343468 -0.36885452 C222.86482572 -0.71488114 222.86482572 -0.71488114 229.12624407 4.43522143 C233.81725565 9.42585243 237.51080887 14.95383954 241.03660321 20.80583465 C243.32783764 24.5176988 245.95318512 27.9335419 248.62353516 31.37670898 C249.58398223 32.65637526 250.54255113 33.93745513 251.49853516 35.22045898 C255.17869304 40.12733617 258.90253494 45.00077967 262.62353516 49.87670898 C264.64215398 52.52566373 266.66031329 55.17496767 268.67822266 57.82446289 C269.95300414 59.49697363 271.22900211 61.16855802 272.50634766 62.83911133 C274.21663561 65.07738591 275.92085596 67.32014393 277.62353516 69.56420898 C278.13400391 70.22936523 278.64447266 70.89452148 279.17041016 71.57983398 C282.62353516 76.14843476 282.62353516 76.14843476 282.62353516 78.37670898 C283.32478516 78.45920898 284.02603516 78.54170898 284.74853516 78.62670898 C290.46027346 80.11672767 294.39146188 83.52859907 297.62353516 88.37670898 C299.38992346 92.79127694 299.868471 96.46871069 299.85058594 101.20825195 C299.85087799 101.86261734 299.85117004 102.51698273 299.85147095 103.19117737 C299.85008804 105.33388975 299.83457662 107.47624556 299.81884766 109.61889648 C299.81511382 111.11247569 299.8122686 112.60605736 299.81027222 114.09963989 C299.80266493 118.01561337 299.78304169 121.93143662 299.76086426 125.84735107 C299.74034299 129.84930388 299.73125711 133.85128114 299.72119141 137.85327148 C299.69979281 145.69448597 299.66569228 153.53557875 299.62353516 161.37670898 C301.60353516 162.36670898 303.58353516 163.35670898 305.62353516 164.37670898 C310.43807568 157.67280417 314.88454916 150.83134842 319.12353516 143.75170898 C324.01608307 135.6468223 328.96632073 127.58314077 333.99853516 119.56420898 C339.24846618 111.19354633 344.4537605 102.79711351 349.62353516 94.37670898 C354.99612404 85.63301948 360.38499763 76.89985083 365.81103516 68.18920898 C366.42269531 67.2037207 367.03435547 66.21823242 367.66455078 65.20288086 C370.82952814 60.13256596 374.08519366 55.1944508 377.62353516 50.37670898 C382.09837346 51.75768557 386.15555989 53.52589578 390.33447266 55.63452148 C391.25397202 56.09639359 391.25397202 56.09639359 392.19204712 56.56759644 C394.12947174 57.54185962 396.06402276 58.52167816 397.99853516 59.50170898 C399.31996304 60.16744429 400.64157592 60.83281251 401.96337891 61.49780273 C405.18558041 63.11986721 408.40523109 64.74692273 411.62353516 66.37670898 C410.94917206 70.54154815 409.61454035 74.16056173 408.01806641 78.06030273 C407.74655762 78.72715088 407.47504883 79.39399902 407.1953125 80.08105469 C406.27966312 82.32714135 405.3577682 84.57061277 404.43603516 86.81420898 C403.77698316 88.42804224 403.11838654 90.04206152 402.46020508 91.65625 C400.99873989 95.238502 399.53467833 98.81967863 398.06884766 102.40014648 C393.99236708 112.35952198 389.93291603 122.32585202 385.87173462 132.29147339 C384.9155308 134.63768395 383.95913062 136.98381449 383.00253296 139.3298645 C375.80436651 156.98377868 368.65297165 174.65486551 361.62353516 192.37670898 C369.44234233 197.26572987 377.49589347 201.34793582 385.85205078 205.23217773 C391.37169104 207.89841227 395.58439688 209.93347626 398.62353516 215.37670898 C400.19002933 223.9186855 396.76906098 230.45024529 392.92041016 237.86499023 C392.32738098 239.04401413 391.73435181 240.22303802 391.12335205 241.43778992 C389.86754177 243.93263064 388.59909977 246.42043196 387.31982422 248.90332031 C385.71597113 252.01629892 384.13386604 255.13962312 382.56001663 258.26785946 C376.65064137 270.00923064 370.59908526 281.66339547 364.09228516 293.08764648 C363.39773224 294.30735893 363.39773224 294.30735893 362.68914795 295.55171204 C345.46422571 325.31145003 345.46422571 325.31145003 334.62353516 329.37670898 C328.72305974 330.266056 324.71851336 327.68179837 319.74853516 324.87670898 C318.96478516 324.44745117 318.18103516 324.01819336 317.37353516 323.57592773 C315.45040545 322.52055168 313.53440263 321.45407912 311.62353516 320.37670898 C311.29353516 321.36670898 310.96353516 322.35670898 310.62353516 323.37670898 C311.22939453 323.45147461 311.83525391 323.52624023 312.45947266 323.60327148 C322.58620956 325.1923902 331.31024792 330.21130943 337.62353516 338.37670898 C343.68907272 348.23320753 346.23726025 358.44019776 344.15869141 369.95092773 C341.53359033 379.8455395 336.27667462 388.69944052 327.62353516 394.37670898 C316.91420467 399.86684512 307.67576059 400.52610587 295.85571289 400.50610352 C293.94137955 400.50873199 293.94137955 400.50873199 291.9883728 400.51141357 C288.49253598 400.51596339 284.99672877 400.51420466 281.50089145 400.51103449 C277.79910125 400.50848142 274.09731338 400.51085811 270.39552307 400.51242065 C264.14705968 400.51424085 257.89860808 400.51184732 251.65014648 400.50708008 C245.312899 400.50229937 238.97567514 400.50221601 232.63842773 400.50708008 C212.29978813 400.52207275 191.96186245 400.49866345 171.62353516 400.37670898 C170.50494362 400.37021835 169.38635208 400.36372772 168.23386383 400.35704041 C162.61681046 400.32077443 157.00101955 400.26320575 151.38478279 400.15963364 C149.85919557 400.13319992 148.33349188 400.11260031 146.80773735 400.09888077 C129.70846199 399.92759216 116.15103755 394.91032228 103.47509766 383.32983398 C98.36342105 377.93777006 94.88184972 372.43227524 92.62353516 365.37670898 C91.70323769 365.38131795 90.78294022 365.38592691 89.83475494 365.39067554 C67.43348448 365.50113636 45.03226101 365.5838567 22.63077545 365.63576984 C11.79753331 365.66154248 0.96447305 365.69667519 -9.86865234 365.75390625 C-19.31171113 365.80376982 -28.75463817 365.83600684 -38.19782495 365.84715146 C-43.19716864 365.85366518 -48.19613547 365.86895488 -53.19535828 365.90535927 C-57.90349337 365.93936531 -62.61109733 365.94975261 -67.31934357 365.94224739 C-69.04467406 365.94361988 -70.77002281 365.953525 -72.49524689 365.97273636 C-88.22546901 366.13926941 -88.22546901 366.13926941 -94.00125885 361.75567913 C-99.10820648 356.63475299 -100.49387537 352.03140713 -100.5534668 345.01269531 C-100.56630203 343.69735306 -100.57913727 342.3820108 -100.59236145 341.02680969 C-100.6005309 339.58745705 -100.60797424 338.14810013 -100.61474609 336.70874023 C-100.61882162 335.98229498 -100.62289715 335.25584972 -100.62709618 334.50739098 C-100.64794601 330.65971538 -100.66225043 326.8120753 -100.67163086 322.96435547 C-100.68267218 319.00447179 -100.71704807 315.04515362 -100.75680256 311.08546925 C-100.78304623 308.02867137 -100.79132967 304.97200642 -100.79491234 301.91510582 C-100.79976108 300.45635868 -100.81132596 298.99761679 -100.82995033 297.53898048 C-100.9402581 288.32451007 -100.80943683 281.16561303 -94.23583984 274.06420898 C-93.19169922 273.22889648 -93.19169922 273.22889648 -92.12646484 272.37670898 C-91.42005859 271.79920898 -90.71365234 271.22170898 -89.98583984 270.62670898 C-89.45474609 270.21420898 -88.92365234 269.80170898 -88.37646484 269.37670898 C-89.28396484 268.81983398 -90.19146484 268.26295898 -91.12646484 267.68920898 C-95.86728979 264.3159297 -98.55777566 260.88368078 -100.37646484 255.37670898 C-100.64389038 252.28569031 -100.64389038 252.28569031 -100.66699219 248.78564453 C-100.67975189 247.47045334 -100.6925116 246.15526215 -100.70565796 244.80021667 C-100.70871608 243.37128853 -100.71094359 241.94235841 -100.71240234 240.51342773 C-100.7188353 239.0375811 -100.72556403 237.56173573 -100.73257446 236.08589172 C-100.74453227 232.99505662 -100.74825691 229.90433315 -100.74707031 226.81347656 C-100.74686737 222.86930151 -100.77414968 218.925849 -100.80861473 214.9818449 C-100.83094763 211.93360666 -100.83490589 208.88554043 -100.83385086 205.83722878 C-100.83619798 204.38407722 -100.84497106 202.93092027 -100.86051559 201.47784996 C-101.017239 185.31256375 -101.017239 185.31256375 -94.89364624 178.79960632 C-92.28957732 176.45399236 -90.94803118 175.37670898 -87.37646484 175.37670898 C-87.37646484 174.71670898 -87.37646484 174.05670898 -87.37646484 173.37670898 C-88.45927734 173.03639648 -88.45927734 173.03639648 -89.56396484 172.68920898 C-95.16326228 170.07620351 -98.01758757 165.94573239 -100.37646484 160.37670898 C-100.75741577 157.15870667 -100.75741577 157.15870667 -100.76464844 153.65625 C-100.77410492 152.33790665 -100.7835614 151.01956329 -100.79330444 149.66127014 C-100.78793371 148.2343821 -100.7817805 146.80749681 -100.77490234 145.38061523 C-100.7769257 143.90380205 -100.77983932 142.42698984 -100.78359985 140.95018005 C-100.78801229 137.86105804 -100.78162822 134.77219703 -100.76757812 131.68310547 C-100.75050163 127.73782556 -100.76032408 123.7931587 -100.77829552 119.84790134 C-100.78917564 116.79969224 -100.78566749 113.75162662 -100.77791214 110.70341301 C-100.77592101 109.24945947 -100.77833094 107.7954926 -100.7853508 106.34155464 C-100.84396003 90.78988467 -100.84396003 90.78988467 -95.31396484 83.75170898 C-92.64689192 81.59535215 -90.84797352 80.71020066 -87.75146484 79.43920898 C-80.88951177 76.18613494 -77.10221303 70.24608521 -72.76757812 64.27172852 C-70.54675172 61.24644691 -68.20879538 58.31628333 -65.87646484 55.37670898 C-64.95918679 54.21052295 -64.04252091 53.04385515 -63.12646484 51.87670898 C-57.62646484 44.87670898 -57.62646484 44.87670898 -56.25219727 43.12768555 C-55.33303172 41.95780883 -54.41392389 40.78788675 -53.49487305 39.61791992 C-51.24190391 36.74999742 -48.98802761 33.88279908 -46.73193359 31.01733398 C-46.31911145 30.49050032 -45.9062893 29.96366666 -45.48095739 29.42086834 C-44.5844025 28.2856737 -43.67980513 27.15674551 -42.76430953 26.03676993 C-40.1093839 22.75261096 -37.77283905 19.44753082 -35.61553001 15.81475735 C-26.16342486 0.69192725 -17.01632867 -0.25081056 0 0 Z " fill="#98A8E4" transform="translate(100.37646484375,54.623291015625)"/>
<path d="M0 0 C2.44907927 -0.0293463 4.89807748 -0.06628263 7.34693909 -0.11018372 C13.28053504 -0.19487718 19.21048222 -0.19581434 25.14420293 -0.15383124 C29.97199728 -0.12122609 34.79865704 -0.12306037 39.62648392 -0.14879036 C40.31658316 -0.15241472 41.00668241 -0.15603909 41.71769375 -0.15977328 C43.1201479 -0.16724614 44.52260172 -0.17477911 45.92505522 -0.1823715 C59.0433534 -0.24904601 72.15943659 -0.2035721 85.27752145 -0.12061257 C96.50209982 -0.05248406 107.72257312 -0.08747387 118.94677734 -0.19628906 C132.018574 -0.32300451 145.08782882 -0.37988141 158.16023219 -0.33121544 C159.55780603 -0.32623715 160.95538026 -0.32136707 162.35295486 -0.31660652 C163.04036532 -0.3142517 163.72777578 -0.31189688 164.43601685 -0.30947069 C169.24996694 -0.29785922 174.06202602 -0.33570333 178.87559128 -0.39379692 C185.37367524 -0.47098147 191.86547394 -0.43584394 198.36315727 -0.32783318 C200.7365127 -0.30500756 203.11052871 -0.31733467 205.48343468 -0.36885452 C222.86482572 -0.71488114 222.86482572 -0.71488114 229.12624407 4.43522143 C233.81725565 9.42585243 237.51080887 14.95383954 241.03660321 20.80583465 C243.32783764 24.5176988 245.95318512 27.9335419 248.62353516 31.37670898 C249.58398223 32.65637526 250.54255113 33.93745513 251.49853516 35.22045898 C255.17869304 40.12733617 258.90253494 45.00077967 262.62353516 49.87670898 C264.64215398 52.52566373 266.66031329 55.17496767 268.67822266 57.82446289 C269.95300414 59.49697363 271.22900211 61.16855802 272.50634766 62.83911133 C274.21663561 65.07738591 275.92085596 67.32014393 277.62353516 69.56420898 C278.13400391 70.22936523 278.64447266 70.89452148 279.17041016 71.57983398 C282.62353516 76.14843476 282.62353516 76.14843476 282.62353516 78.37670898 C283.32478516 78.45920898 284.02603516 78.54170898 284.74853516 78.62670898 C290.46027346 80.11672767 294.39146188 83.52859907 297.62353516 88.37670898 C299.38992346 92.79127694 299.868471 96.46871069 299.85058594 101.20825195 C299.85087799 101.86261734 299.85117004 102.51698273 299.85147095 103.19117737 C299.85008804 105.33388975 299.83457662 107.47624556 299.81884766 109.61889648 C299.81511382 111.11247569 299.8122686 112.60605736 299.81027222 114.09963989 C299.80266493 118.01561337 299.78304169 121.93143662 299.76086426 125.84735107 C299.74034299 129.84930388 299.73125711 133.85128114 299.72119141 137.85327148 C299.69979281 145.69448597 299.66569228 153.53557875 299.62353516 161.37670898 C301.60353516 162.36670898 303.58353516 163.35670898 305.62353516 164.37670898 C310.43807568 157.67280417 314.88454916 150.83134842 319.12353516 143.75170898 C324.01608307 135.6468223 328.96632073 127.58314077 333.99853516 119.56420898 C339.24846618 111.19354633 344.4537605 102.79711351 349.62353516 94.37670898 C354.99612404 85.63301948 360.38499763 76.89985083 365.81103516 68.18920898 C366.42269531 67.2037207 367.03435547 66.21823242 367.66455078 65.20288086 C370.82952814 60.13256596 374.08519366 55.1944508 377.62353516 50.37670898 C382.09837346 51.75768557 386.15555989 53.52589578 390.33447266 55.63452148 C391.25397202 56.09639359 391.25397202 56.09639359 392.19204712 56.56759644 C394.12947174 57.54185962 396.06402276 58.52167816 397.99853516 59.50170898 C399.31996304 60.16744429 400.64157592 60.83281251 401.96337891 61.49780273 C405.18558041 63.11986721 408.40523109 64.74692273 411.62353516 66.37670898 C410.94917206 70.54154815 409.61454035 74.16056173 408.01806641 78.06030273 C407.74655762 78.72715088 407.47504883 79.39399902 407.1953125 80.08105469 C406.27966312 82.32714135 405.3577682 84.57061277 404.43603516 86.81420898 C403.77698316 88.42804224 403.11838654 90.04206152 402.46020508 91.65625 C400.99873989 95.238502 399.53467833 98.81967863 398.06884766 102.40014648 C393.99236708 112.35952198 389.93291603 122.32585202 385.87173462 132.29147339 C384.9155308 134.63768395 383.95913062 136.98381449 383.00253296 139.3298645 C375.80436651 156.98377868 368.65297165 174.65486551 361.62353516 192.37670898 C369.44234233 197.26572987 377.49589347 201.34793582 385.85205078 205.23217773 C391.37169104 207.89841227 395.58439688 209.93347626 398.62353516 215.37670898 C400.9394272 224.39783055 395.72369427 232.32226428 391.62353516 240.00170898 C390.94719673 241.30413058 390.27270128 242.60751097 389.60009766 243.91186523 C387.96234481 247.07814971 386.3000312 250.23073104 384.62353516 253.37670898 C379.11924375 251.75309677 374.184928 249.29367347 369.08056641 246.72045898 C367.69595467 246.02780945 367.69595467 246.02780945 366.28337097 245.32116699 C364.32655441 244.34125037 362.37070864 243.35939311 360.41577148 242.37573242 C357.49311182 240.90542269 354.56742223 239.44130214 351.64111328 237.97827148 C342.75999842 233.52909125 333.91057528 229.0313724 325.13525391 224.37670898 C314.39547323 218.6815009 303.51099162 213.28268349 292.62353516 207.87670898 C281.39427221 202.3010165 270.17085846 196.71907543 259.06103516 190.90795898 C258.2937207 190.50887329 257.52640625 190.1097876 256.73583984 189.6986084 C252.51746618 187.47573725 248.54086418 185.09656066 244.62353516 182.37670898 C246.49853516 176.62670898 246.49853516 176.62670898 247.62353516 174.37670898 C246.9181028 174.37898731 246.21267045 174.38126563 245.48586136 174.38361299 C203.67464417 174.51788638 161.86345202 174.62083077 120.05206257 174.68310096 C115.03153419 174.69060519 110.01100625 174.69837112 104.99047852 174.70629883 C103.99098336 174.70787269 102.99148821 174.70944655 101.96170532 174.71106811 C85.7787685 174.73717478 69.59595959 174.78448159 53.41309864 174.83962576 C36.80753094 174.89573833 20.20203021 174.92906242 3.59637159 174.94123995 C-6.64997299 174.94947199 -16.89595604 174.9754702 -27.14218933 175.02420779 C-34.16877721 175.0559278 -41.19517823 175.0655086 -48.22183251 175.05771725 C-52.27575387 175.0538748 -56.32904356 175.05975723 -60.38285255 175.09194183 C-64.09745726 175.12121755 -67.81100775 175.12256649 -71.52566177 175.10210235 C-73.49941872 175.098381 -75.47316391 175.12419177 -77.44673961 175.15119684 C-85.2847565 175.07217023 -90.55775883 173.82848725 -96.37646484 168.37670898 C-101.8206081 161.68352653 -100.94333072 153.40561848 -100.87255859 145.18530273 C-100.87271384 143.71134876 -100.87420698 142.23739439 -100.87696838 140.76344299 C-100.8783471 137.6861855 -100.86588234 134.60939708 -100.84301758 131.53222656 C-100.81460894 127.60267034 -100.81738391 123.67389095 -100.83010769 119.744277 C-100.83708641 116.70463002 -100.82925113 113.6651603 -100.81685066 110.62553596 C-100.81235918 109.17717228 -100.81197906 107.72878942 -100.81591606 106.28042412 C-100.83833235 90.78272217 -100.83833235 90.78272217 -95.31396484 83.75170898 C-92.64689192 81.59535215 -90.84797352 80.71020066 -87.75146484 79.43920898 C-80.88951177 76.18613494 -77.10221303 70.24608521 -72.76757812 64.27172852 C-70.54675172 61.24644691 -68.20879538 58.31628333 -65.87646484 55.37670898 C-64.95918679 54.21052295 -64.04252091 53.04385515 -63.12646484 51.87670898 C-57.62646484 44.87670898 -57.62646484 44.87670898 -56.25219727 43.12768555 C-55.33303172 41.95780883 -54.41392389 40.78788675 -53.49487305 39.61791992 C-51.24190391 36.74999742 -48.98802761 33.88279908 -46.73193359 31.01733398 C-46.31911145 30.49050032 -45.9062893 29.96366666 -45.48095739 29.42086834 C-44.5844025 28.2856737 -43.67980513 27.15674551 -42.76430953 26.03676993 C-40.1093839 22.75261096 -37.77283905 19.44753082 -35.61553001 15.81475735 C-26.16342486 0.69192725 -17.01632867 -0.25081056 0 0 Z " fill="#7F95DF" transform="translate(100.37646484375,54.623291015625)"/>
<path d="M0 0 C5.17381676 0.41593429 9.58938584 3.11308619 14.125 5.4375 C15.28322266 6.02047852 15.28322266 6.02047852 16.46484375 6.61523438 C20.70139594 8.76019741 24.91304477 10.95000094 29.10839844 13.17431641 C41.64148851 19.81693359 54.29569003 26.19189893 67 32.5 C78.82194816 38.36997987 90.61152531 44.27572029 102.26998901 50.46510315 C107.26847507 53.11126062 112.30192521 55.66824413 117.3828125 58.15234375 C118.03223816 58.47075226 118.68166382 58.78916077 119.35076904 59.11721802 C121.94790795 60.38899088 124.54604782 61.65834988 127.15087891 62.91430664 C129.10771323 63.85969308 131.05810801 64.81735877 133.0078125 65.77734375 C134.70381592 66.60093384 134.70381592 66.60093384 136.43408203 67.44116211 C139 69 139 69 140 72 C139.1105957 74.39404297 139.1105957 74.39404297 137.67578125 77.2421875 C137.14782959 78.29801025 136.61987793 79.35383301 136.07592773 80.44165039 C135.49399658 81.57465576 134.91206543 82.70766113 134.3125 83.875 C133.71961182 85.04087646 133.12672363 86.20675293 132.51586914 87.40795898 C105.30550124 140.63543704 105.30550124 140.63543704 91 146 C85.09952458 146.88934702 81.0949782 144.30508939 76.125 141.5 C75.34125 141.07074219 74.5575 140.64148438 73.75 140.19921875 C71.8268703 139.14384269 69.91086748 138.07737013 68 137 C67.67 137.99 67.34 138.98 67 140 C67.60585938 140.07476562 68.21171875 140.14953125 68.8359375 140.2265625 C78.9626744 141.81568121 87.68671277 146.83460044 94 155 C100.06553757 164.85649854 102.61372509 175.06348878 100.53515625 186.57421875 C97.91005517 196.46883052 92.65313946 205.32273154 84 211 C73.29066951 216.49013613 64.05222543 217.14939689 52.23217773 217.12939453 C50.31784439 217.13202301 50.31784439 217.13202301 48.36483765 217.13470459 C44.86900082 217.1392544 41.37319362 217.13749567 37.87735629 217.1343255 C34.17556609 217.13177244 30.47377823 217.13414912 26.77198792 217.13571167 C20.52352452 217.13753186 14.27507293 217.13513833 8.02661133 217.13037109 C1.68936385 217.12559039 -4.64786002 217.12550702 -10.98510742 217.13037109 C-31.32374703 217.14536377 -51.6616727 217.12195447 -72 217 C-73.11859154 216.99350937 -74.23718307 216.98701874 -75.38967133 216.98033142 C-81.00672469 216.94406545 -86.6225156 216.88649677 -92.23875237 216.78292465 C-93.76433958 216.75649094 -95.29004328 216.73589133 -96.81579781 216.72217178 C-113.89141286 216.55112019 -127.5265103 211.5539895 -140.15625 199.93359375 C-146.56839233 193.20899534 -150.43828797 185.8823181 -153 177 C-153.22558594 176.23429688 -153.45117188 175.46859375 -153.68359375 174.6796875 C-156.70850508 162.3714276 -156.08675728 149.58161346 -151 138 C-150.69964844 137.27554688 -150.39929688 136.55109375 -150.08984375 135.8046875 C-144.6678699 123.83409588 -135.51469209 115.53166685 -124 109.6875 C-123.33556885 109.34968506 -122.6711377 109.01187012 -121.98657227 108.66381836 C-112.69373463 104.15159008 -104.7376798 103.78301684 -94.51367188 104.25390625 C-88.83375546 104.39293948 -86.27397366 104.05064891 -82 100 C-81.13890625 99.85433594 -80.2778125 99.70867187 -79.390625 99.55859375 C-76.80845156 99.21678371 -76.80845156 99.21678371 -75.296875 96.84765625 C-74.78640625 95.92855469 -74.2759375 95.00945312 -73.75 94.0625 C-70.12865319 88.00597421 -65.9277873 83.03189548 -61 78 C-60.4328125 77.39671875 -59.865625 76.7934375 -59.28125 76.171875 C-56.07432737 73.0524139 -52.72979981 70.80041205 -48.77734375 68.734375 C-47.60546509 68.11852539 -47.60546509 68.11852539 -46.40991211 67.49023438 C-44.85257763 66.68876956 -43.28214795 65.91204399 -41.69750977 65.16601562 C-31.03683326 59.73951593 -25.81328254 48.42314017 -20.25 38.3125 C-19.65872314 37.24902344 -19.06744629 36.18554688 -18.45825195 35.08984375 C-12.64089652 24.53118449 -7.2575454 13.76282777 -1.99291992 2.91992188 C-1 1 -1 1 0 0 Z " fill="#CBE3FE" transform="translate(344,238)"/>
<path d="M0 0 C1.01966356 -0.02250671 2.03932713 -0.04501341 3.08988959 -0.06820214 C6.50035774 -0.13210521 9.90771906 -0.13185215 13.31874084 -0.13137817 C15.76673681 -0.16322725 18.21468769 -0.19871929 20.6625824 -0.23757935 C27.30998327 -0.32990579 33.95612767 -0.36336478 40.60400844 -0.38050604 C44.76135339 -0.39178184 48.91851325 -0.41822612 53.0757618 -0.44800186 C64.60442645 -0.52880993 76.13291257 -0.596343 87.66188717 -0.60363579 C88.39898675 -0.60410251 89.13608634 -0.60456923 89.89552227 -0.60505009 C91.38958076 -0.60592321 92.88363925 -0.60677933 94.37769776 -0.60761856 C95.11927225 -0.60804712 95.86084674 -0.60847568 96.62489319 -0.60891724 C97.36738202 -0.60933624 98.10987085 -0.60975525 98.87485934 -0.61018695 C110.88955358 -0.61958062 122.90099399 -0.7292115 134.91461497 -0.883826 C147.27291995 -1.04159701 159.62962331 -1.11997045 171.98895842 -1.11828911 C178.91921449 -1.11904437 185.84573583 -1.15216175 192.77505302 -1.27181625 C199.30117468 -1.38394002 205.82176656 -1.38602129 212.34852219 -1.31629944 C214.73338114 -1.30775669 217.11869131 -1.3345974 219.50264549 -1.40083694 C236.97497998 -1.85590741 236.97497998 -1.85590741 243.24433064 3.27611303 C247.94196064 8.26360309 251.63098755 13.79322893 255.15181172 19.65042663 C257.44010395 23.36503253 260.0655781 26.7803536 262.73695374 30.22360229 C263.6974224 31.50325235 264.65599373 32.78433055 265.61195374 34.06735229 C269.29211162 38.97422948 273.01595352 43.84767299 276.73695374 48.72360229 C278.75557256 51.37255704 280.77373187 54.02186098 282.79164124 56.6713562 C284.06642271 58.34386694 285.34242069 60.01545133 286.61976624 61.68600464 C288.33005419 63.92427922 290.03427454 66.16703724 291.73695374 68.41110229 C292.24742249 69.07625854 292.75789124 69.74141479 293.28382874 70.42672729 C296.73695374 74.99532807 296.73695374 74.99532807 296.73695374 77.22360229 C175.95695374 77.22360229 55.17695374 77.22360229 -69.26304626 77.22360229 C-67.28304626 74.58360229 -65.30304626 71.94360229 -63.26304626 69.22360229 C-62.3542572 67.99641479 -61.44546814 66.76922729 -60.50914001 65.50485229 C-54.84016277 57.86026157 -49.0187504 50.37829825 -42.98399353 43.01901245 C-38.79600994 37.90546249 -34.74491775 32.70451842 -30.73570251 27.45016479 C-27.62546675 23.37762535 -24.4527212 19.35456485 -21.28013611 15.33053589 C-20.85812927 14.79509155 -20.43612244 14.25964722 -20.00132751 13.70797729 C-19.58562329 13.19531693 -19.16991906 12.68265656 -18.74161774 12.15446103 C-17.20827193 10.2107223 -17.20827193 10.2107223 -15.82519621 7.95759857 C-11.28389577 1.18126172 -7.99505882 -0.10056837 0 0 Z " fill="#98A7E5" transform="translate(86.26304626464844,55.776397705078125)"/>
<path d="M0 0 C1.37270909 -0.00298657 1.37270909 -0.00298657 2.77314967 -0.00603348 C3.77994865 -0.00312064 4.78674763 -0.0002078 5.82405567 0.00279331 C6.89242611 0.00193889 7.96079655 0.00108446 9.06154186 0.00020415 C12.65913914 -0.00144944 16.25669031 0.00406878 19.85428333 0.00952244 C22.4261217 0.00980436 24.99796015 0.00964647 27.56979847 0.00907993 C33.11588682 0.00855514 38.66196342 0.01169734 44.20804882 0.01731777 C52.22679396 0.02543874 60.2455334 0.02804861 68.2642822 0.02930576 C81.27361523 0.03149534 94.28294199 0.03815289 107.29227161 0.04760838 C119.93094317 0.05678492 132.56961303 0.06386457 145.20828724 0.06811619 C145.98710491 0.06837891 146.76592259 0.06864164 147.5683408 0.06891232 C151.47537148 0.07021734 155.38240218 0.07148105 159.28943288 0.07272422 C191.71120074 0.08309391 224.13296093 0.10070968 256.55472279 0.12304783 C254.53204546 5.28508334 252.24904087 9.93335528 248.55472279 14.12304783 C244.86722279 15.49804783 244.86722279 15.49804783 241.55472279 16.12304783 C241.08276478 16.62779636 240.61080677 17.1325449 240.124547 17.65258884 C238.55472279 19.12304783 238.55472279 19.12304783 236.49271107 19.40014744 C235.71137806 19.358978 234.93004505 19.31780857 234.12503529 19.27539158 C233.2534679 19.24461521 232.38190052 19.21383884 231.483922 19.18212986 C230.55853626 19.14200779 229.63315052 19.10188572 228.67972279 19.06054783 C211.86281588 18.71442676 198.03700293 24.12120785 185.77347279 35.78320408 C176.40984599 45.65787389 171.3539271 58.72190745 171.36722279 72.24804783 C171.36730335 73.00633884 171.36738392 73.76462986 171.36746693 74.54589939 C171.42554112 80.27507111 172.12467692 85.569877 173.55472279 91.12304783 C173.89260478 92.78879831 174.22644537 94.45537795 174.55472279 96.12304783 C151.22386455 96.23989169 127.89305463 96.32804128 104.56196308 96.38210869 C93.72872094 96.40788132 82.89566068 96.44301403 72.06253529 96.50024509 C62.6194765 96.55010866 53.17654946 96.58234568 43.73336267 96.5934903 C38.73401899 96.60000402 33.73505216 96.61529372 28.73582935 96.65169811 C24.02769426 96.68570415 19.3200903 96.69609146 14.61184406 96.68858624 C12.88651357 96.68995872 11.16116482 96.69986384 9.43594074 96.7190752 C-6.29428138 96.88560825 -6.29428138 96.88560825 -12.07007122 92.50201797 C-17.17701885 87.38109183 -18.56268774 82.77774598 -18.62227917 75.75903416 C-18.6351144 74.4436919 -18.64794964 73.12834965 -18.66117382 71.77314854 C-18.66934327 70.33379589 -18.67678661 68.89443897 -18.68355846 67.45507908 C-18.68763399 66.72863382 -18.69170952 66.00218857 -18.69590855 65.25372982 C-18.71675838 61.40605423 -18.7310628 57.55841415 -18.74044323 53.71069431 C-18.75148455 49.75081063 -18.78586044 45.79149247 -18.82561493 41.83180809 C-18.8518586 38.77501021 -18.86014204 35.71834527 -18.86372471 32.66144466 C-18.86857345 31.20269752 -18.88013833 29.74395563 -18.8987627 28.28531933 C-19.00682205 19.25866828 -18.88673097 12.15669542 -12.62887096 5.06445408 C-12.05266003 4.60941502 -11.47644909 4.15437595 -10.88277721 3.68554783 C-10.30398815 3.21246189 -9.72519909 2.73937595 -9.12887096 2.25195408 C-6.12442738 0.23737358 -3.50625604 -0.00168166 0 0 Z " fill="#7F95DF" transform="translate(18.445277214050293,323.8769521713257)"/>
<path d="M0 0 C3.37325862 0.57153291 6.14639506 1.38851021 9.1953125 2.93359375 C9.99582031 3.33642578 10.79632813 3.73925781 11.62109375 4.15429688 C12.44738281 4.57775391 13.27367187 5.00121094 14.125 5.4375 C14.89714844 5.82615234 15.66929687 6.21480469 16.46484375 6.61523438 C20.70139594 8.76019741 24.91304477 10.95000094 29.10839844 13.17431641 C41.64148851 19.81693359 54.29569003 26.19189893 67 32.5 C78.82194816 38.36997987 90.61152531 44.27572029 102.26998901 50.46510315 C107.26847507 53.11126062 112.30192521 55.66824413 117.3828125 58.15234375 C118.03223816 58.47075226 118.68166382 58.78916077 119.35076904 59.11721802 C121.94790795 60.38899088 124.54604782 61.65834988 127.15087891 62.91430664 C129.10771323 63.85969308 131.05810801 64.81735877 133.0078125 65.77734375 C134.70381592 66.60093384 134.70381592 66.60093384 136.43408203 67.44116211 C139 69 139 69 140 72 C139.1105957 74.39404297 139.1105957 74.39404297 137.67578125 77.2421875 C137.14782959 78.29801025 136.61987793 79.35383301 136.07592773 80.44165039 C135.49399658 81.57465576 134.91206543 82.70766113 134.3125 83.875 C133.71961182 85.04087646 133.12672363 86.20675293 132.51586914 87.40795898 C105.30550124 140.63543704 105.30550124 140.63543704 91 146 C85.16554388 146.85751372 81.28682965 144.40495914 76.375 141.625 C74.88286917 140.80458442 73.39068348 139.98426862 71.8984375 139.1640625 C71.24536621 138.79748535 70.59229492 138.4309082 69.91943359 138.05322266 C67.25419206 136.59076374 64.67787553 135.22237187 61.78515625 134.2734375 C60 133 60 133 59.49609375 130.1640625 C59.47675781 128.99617187 59.45742188 127.82828125 59.4375 126.625 C58.50104986 107.42777211 50.30699173 90.86941465 36.4765625 77.57421875 C20.11852711 63.30291221 1.17843253 58.56731474 -20 60 C-25.44823525 60.60971011 -30.69612103 61.63719776 -36 63 C-35.68289063 62.5359375 -35.36578125 62.071875 -35.0390625 61.59375 C-33.33858737 59.07591943 -31.66902349 56.53879629 -30 54 C-29.30777344 52.96359375 -28.61554688 51.9271875 -27.90234375 50.859375 C-20.53470159 39.59260815 -14.51357386 27.64170314 -8.41796875 15.66015625 C-5.7253682 10.3728 -2.94001585 5.15377524 0 0 Z " fill="#FED44F" transform="translate(344,238)"/>
<path d="M0 0 C4.4748383 1.38097659 8.53202474 3.14918679 12.7109375 5.2578125 C13.32393707 5.56572723 13.93693665 5.87364197 14.56851196 6.19088745 C16.50593658 7.16515063 18.4404876 8.14496917 20.375 9.125 C21.69642788 9.7907353 23.01804076 10.45610353 24.33984375 11.12109375 C27.56204525 12.74315823 30.78169593 14.37021374 34 16 C33.3256369 20.16483917 31.99100519 23.78385275 30.39453125 27.68359375 C30.12302246 28.35044189 29.85151367 29.01729004 29.57177734 29.7043457 C28.65612796 31.95043236 27.73423304 34.19390379 26.8125 36.4375 C26.153448 38.05133325 25.49485138 39.66535253 24.83666992 41.27954102 C23.37520474 44.86179301 21.91114318 48.44296965 20.4453125 52.0234375 C16.36890268 61.98264013 12.30994216 71.94896341 8.24902344 81.91448975 C6.81735891 85.42558375 5.38349154 88.93577154 3.94921875 92.44580078 C-0.07648644 102.30540979 -4.09294132 112.16627804 -7.96875 122.0859375 C-8.25462479 122.81468582 -8.54049957 123.54343414 -8.83503723 124.29426575 C-10.10054999 127.52174843 -11.35489483 130.75209009 -12.58862305 133.99194336 C-13.00668213 135.06323486 -13.42474121 136.13452637 -13.85546875 137.23828125 C-14.20246826 138.14618408 -14.54946777 139.05408691 -14.90698242 139.98950195 C-16 142 -16 142 -19 143 C-21.65640855 141.77558519 -24.14416697 140.49153277 -26.6875 139.0625 C-28.23478074 138.2171074 -29.78297901 137.3733922 -31.33203125 136.53125 C-32.11529785 136.10328125 -32.89856445 135.6753125 -33.70556641 135.234375 C-37.05704887 133.43132165 -40.46066962 131.74259483 -43.875 130.0625 C-53.00611508 125.54612158 -62.00258185 120.77582484 -71 116 C-70.35276423 112.69316221 -69.12761758 110.2841066 -67.3671875 107.421875 C-66.81603271 106.52065918 -66.26487793 105.61944336 -65.69702148 104.69091797 C-64.79512085 103.23516357 -64.79512085 103.23516357 -63.875 101.75 C-63.25117432 100.73437988 -62.62734863 99.71875977 -61.98461914 98.67236328 C-56.2578996 89.36760481 -50.46304408 80.10503812 -44.66015625 70.84765625 C-41.21359235 65.34712534 -37.78925756 59.83313004 -34.375 54.3125 C-33.84567871 53.45696533 -33.31635742 52.60143066 -32.77099609 51.7199707 C-30.10818706 47.4144033 -27.44902515 43.106611 -24.79296875 38.796875 C-19.00329123 29.41073869 -13.16431614 20.05821089 -7.25 10.75 C-6.64099854 9.79037354 -6.03199707 8.83074707 -5.40454102 7.84204102 C-4.84307373 6.96088623 -4.28160645 6.07973145 -3.703125 5.171875 C-3.20458008 4.3890918 -2.70603516 3.60630859 -2.19238281 2.79980469 C-1 1 -1 1 0 0 Z " fill="#FE0000" transform="translate(478,105)"/>
<path d="M0 0 C2.78686843 1.00521549 5.33807333 2.33623275 7.9375 3.75 C8.60201172 4.09804687 9.26652344 4.44609375 9.95117188 4.8046875 C11.2938062 5.50791013 12.63415184 6.21551984 13.97216797 6.92749023 C19.6454817 9.92807622 25.27589418 12.58499535 31.3125 14.77734375 C33.59446234 15.81550394 35.50852323 16.92185811 37.60546875 18.2734375 C42.64034102 21.48810039 47.95294144 24.06304269 53.3125 26.6875 C61.835973 30.89914465 70.29875632 35.19679362 78.67114258 39.7019043 C82.849029 41.93376892 87.06489615 43.94305603 91.40454102 45.83886719 C96.4471879 48.09480065 101.4107186 50.51555941 106.3671875 52.95361328 C107.62677287 53.57001307 108.88918773 54.18066285 110.15429688 54.78564453 C124.15504686 61.48620986 124.15504686 61.48620986 127 67 C129.27784246 76.04774295 124.11240686 83.92261572 120 91.625 C119.32366157 92.9274216 118.64916613 94.23080198 117.9765625 95.53515625 C116.33880966 98.70144072 114.67649604 101.85402206 113 105 C107.49570859 103.37638779 102.56139284 100.91696448 97.45703125 98.34375 C96.53395676 97.88198364 95.61088226 97.42021729 94.65983582 96.94445801 C92.70301926 95.96454139 90.74717348 94.98268412 88.79223633 93.99902344 C85.86957666 92.5287137 82.94388708 91.06459316 80.01757812 89.6015625 C71.13646327 85.15238226 62.28704012 80.65466342 53.51171875 76 C42.77193807 70.30479191 31.88745646 64.9059745 21 59.5 C9.77073705 53.92430752 -1.4526767 48.34236645 -12.5625 42.53125 C-13.32981445 42.13216431 -14.09712891 41.73307861 -14.88769531 41.32189941 C-19.10606897 39.09902826 -23.08267097 36.71985167 -27 34 C-25.51622316 29.13230354 -23.53257405 24.71546737 -21.25 20.1875 C-20.89583008 19.48407471 -20.54166016 18.78064941 -20.17675781 18.0559082 C-10.35002346 -1.1655918 -10.35002346 -1.1655918 0 0 Z " fill="#407092" transform="translate(372,203)"/>
<path d="M0 0 C1.45074562 -0.00677831 2.90148262 -0.01568264 4.35220337 -0.02655029 C8.28621684 -0.04932556 12.21957399 -0.04051509 16.15359879 -0.02465487 C20.27258306 -0.01198648 24.39151154 -0.02373857 28.51049805 -0.03158569 C35.42734862 -0.04067956 42.34393217 -0.02870139 49.26074219 -0.00488281 C57.25495268 0.02232816 65.24852557 0.0135138 73.2427206 -0.01401484 C80.10914024 -0.03671255 86.97536805 -0.03990282 93.84181309 -0.02682149 C97.94163526 -0.01903054 102.04115783 -0.01797536 106.14096069 -0.03450394 C109.99570908 -0.04895932 113.84963634 -0.03890871 117.70429611 -0.01003265 C119.1180116 -0.00342736 120.53179632 -0.00531017 121.94548416 -0.01634598 C133.95895991 -0.10147397 133.95895991 -0.10147397 137.30151367 2.96084595 C138.92578125 5.64697266 138.92578125 5.64697266 138.98828125 9.27197266 C137.80148986 13.04178059 137.27059643 13.74989001 133.92578125 15.64697266 C131.11777496 16.02728939 131.11777496 16.02728939 127.81506348 16.03465271 C125.93492302 16.04950966 125.93492302 16.04950966 124.01679993 16.06466675 C122.6303396 16.06042876 121.24388021 16.05587091 119.85742188 16.05102539 C118.395355 16.05672843 116.93329257 16.06369244 115.47123718 16.07182312 C111.50225965 16.08977584 107.53350294 16.08858239 103.56449699 16.08288074 C100.25171453 16.07979233 96.93897469 16.08587736 93.62619829 16.09191948 C85.81212353 16.10596965 77.99815808 16.10439898 70.18408203 16.09301758 C62.12009622 16.0815318 54.0564428 16.09561846 45.99250078 16.12241405 C39.07009807 16.14455599 32.14779982 16.15121197 25.22536421 16.14533764 C21.09037281 16.14196371 16.95559458 16.14441204 12.82063293 16.16158867 C8.93320211 16.17703222 5.04626468 16.17313162 1.15885353 16.15428352 C-0.2681945 16.15059058 -1.69527887 16.15372668 -3.12229347 16.16416931 C-5.06932546 16.1773302 -7.01648444 16.163454 -8.96350098 16.1481781 C-10.05339577 16.14796882 -11.14329056 16.14775953 -12.26621246 16.14754391 C-15.75863235 15.52496518 -16.93676478 14.42962049 -19.07421875 11.64697266 C-19.79637547 7.8757098 -19.45325207 6.25391646 -17.41870117 2.9960022 C-12.86227067 -1.26996425 -5.82734142 -0.04549052 0 0 Z " fill="#8095E0" transform="translate(147.07421875,268.35302734375)"/>
<path d="M0 0 C16.93402926 -1.30484814 33.48225202 4.84754103 46.75 15.3125 C60.28133286 26.99953355 70.21191708 42.03831196 73 60 C73.06701506 62.43666765 73.08528021 64.87501742 73.0625 67.3125 C73.05347656 68.56675781 73.04445313 69.82101562 73.03515625 71.11328125 C73.02355469 72.06589844 73.01195312 73.01851563 73 74 C73.78375 74.28875 74.5675 74.5775 75.375 74.875 C78 76 78 76 80 78 C80 78.99 80 79.98 80 81 C80.90878906 81.11214844 80.90878906 81.11214844 81.8359375 81.2265625 C91.9626744 82.81568121 100.68671277 87.83460044 107 96 C113.06553757 105.85649854 115.61372509 116.06348878 113.53515625 127.57421875 C110.91005517 137.46883052 105.65313946 146.32273154 97 152 C86.602115 157.33047367 77.51278001 158.17013961 66 158 C69.1622886 156.22402275 72.07898891 155.50953912 75.625 154.8125 C83.98208422 152.76399521 90.37116423 148.75541802 95.375 141.6875 C96.28569323 140.14553078 97.1616165 138.58244885 98 137 C98.4125 136.26265625 98.825 135.5253125 99.25 134.765625 C103.31366994 126.35608581 103.36560901 116.62000631 101.1875 107.65625 C97.9516349 98.93739125 92.12198266 91.1871337 84.0625 86.375 C81.2554122 84.86346987 81.2554122 84.86346987 79 85 C78.57976562 85.46792969 78.15953125 85.93585938 77.7265625 86.41796875 C75.40766236 88.54275282 73.44677752 88.72910039 70.375 89.3125 C62.7601803 91.06905865 57.52075689 94.68299373 51.8125 99.875 C49 102 49 102 45.875 102.625 C43 102 43 102 40.625 99.8125 C38.81867228 96.68616356 38.22843155 95.51492292 39 92 C44.64378158 83.34620158 53.38001804 78.91047894 63 76 C62.18450752 63.90149956 61.03912141 53.1620762 56 42 C55.57976562 41.04996094 55.15953125 40.09992188 54.7265625 39.12109375 C50.82363497 31.19115718 45.17278385 25.20017787 39 19 C38.43796875 18.40316406 37.8759375 17.80632812 37.296875 17.19140625 C28.04945099 8.21167083 12.63460298 2.3441067 0 1 C0 0.67 0 0.34 0 0 Z " fill="#9FC7F9" transform="translate(331,297)"/>
<path d="M0 0 C1.26184113 -0.0112793 2.52368225 -0.02255859 3.82376099 -0.03417969 C5.21966782 -0.02640269 6.61557239 -0.01821002 8.01147461 -0.00964355 C9.48339531 -0.01506443 10.95531059 -0.0221869 12.42721558 -0.03088379 C16.42312285 -0.04912446 20.41861718 -0.04204676 24.41453171 -0.02936745 C28.59537625 -0.01924354 32.77618533 -0.02863142 36.95703125 -0.03491211 C43.97817333 -0.04219031 50.99914714 -0.03259635 58.02026367 -0.0135498 C66.13879284 0.00821936 74.25692021 0.0011681 82.37543964 -0.02085543 C89.34456224 -0.03900458 96.31356385 -0.04157015 103.28270245 -0.03110075 C107.44562555 -0.02486311 111.60835977 -0.0240375 115.77127075 -0.0372467 C119.6849868 -0.04879764 123.5981846 -0.04079389 127.51184464 -0.01766968 C128.94856022 -0.01237845 130.38531939 -0.01390351 131.82201767 -0.02272034 C133.78220823 -0.03364112 135.74249405 -0.01752125 137.70263672 0 C138.79990585 0.0015081 139.89717499 0.0030162 141.0276947 0.00457001 C144.53989376 0.63068622 145.75170424 1.66084339 147.85131836 4.50793457 C147.85131836 8.19107554 147.83455649 10.51882619 145.17073822 13.19854832 C142.19238805 14.87992168 140.15579016 14.88800054 136.74060059 14.89561462 C134.86046013 14.91047157 134.86046013 14.91047157 132.94233704 14.92562866 C131.55587671 14.92139067 130.16941732 14.91683282 128.78295898 14.9119873 C127.32089211 14.91769035 125.85882968 14.92465435 124.39677429 14.93278503 C120.42779676 14.95073776 116.45904005 14.9495443 112.4900341 14.94384265 C109.17725164 14.94075424 105.8645118 14.94683927 102.5517354 14.9528814 C94.73766064 14.96693157 86.92369519 14.9653609 79.10961914 14.95397949 C71.04563333 14.94249372 62.98197991 14.95658038 54.91803789 14.98337597 C47.99563518 15.0055179 41.07333693 15.01217388 34.15090132 15.00629956 C30.01590992 15.00292562 25.88113169 15.00537395 21.74617004 15.02255058 C17.85873922 15.03799413 13.97180179 15.03409354 10.08439064 15.01524544 C8.65734261 15.0115525 7.23025823 15.0146886 5.80324364 15.02513123 C3.85621165 15.03829212 1.90905267 15.02441592 -0.03796387 15.00914001 C-1.12785866 15.00893073 -2.21775345 15.00872145 -3.34067535 15.00850582 C-6.83400975 14.38576406 -8.01575523 13.29631621 -10.14868164 10.50793457 C-10.64868164 7.50793457 -10.64868164 7.50793457 -10.14868164 4.50793457 C-7.0927627 0.50794661 -4.93738414 0.00678601 0 0 Z " fill="#98A7E4" transform="translate(138.148681640625,174.4920654296875)"/>
<path d="M0 0 C6.15705754 2.88344426 10.25357765 6.39579563 12.6875 12.8125 C13.81900968 20.73306777 12.63549194 26.00132258 8.1875 32.75 C4.28833654 36.76056813 0.64329327 38.18684532 -4.875 38.5 C-10.29103072 38.3205532 -13.96899532 36.57484018 -18 33 C-22.8092355 26.83431347 -23.77149523 21.63553367 -23 14 C-21.41242997 7.89643685 -17.8362151 4.26702016 -12.4921875 1.078125 C-8.19724526 -0.77987509 -4.55172942 -1.07560429 0 0 Z " fill="#07E19D" transform="translate(71,162)"/>
<path d="M0 0 C4.9468674 2.85573351 8.66286322 6.36265454 10.36328125 12.00390625 C11.65083996 18.35824692 11.19486112 23.68402183 7.98828125 29.36328125 C5.17736596 33.38800087 1.4725703 35.80755185 -3.21484375 37.0859375 C-9.27413353 37.95819611 -13.46077289 37.11120233 -18.48828125 33.5859375 C-22.41131907 30.17768745 -24.95186357 26.02423526 -25.41796875 20.81640625 C-25.54611628 13.86440286 -24.54164769 9.790061 -19.90234375 4.3984375 C-13.99926577 -0.68095518 -7.48928531 -3.09081616 0 0 Z " fill="#06E19D" transform="translate(73.21484375,353.9140625)"/>
<path d="M0 0 C5.84211008 1.94737003 8.99830978 5.64980269 12.11328125 10.86328125 C14.11683911 15.69123785 13.99172445 21.52888494 12.0546875 26.35546875 C9.27105219 31.02112165 5.91457965 34.54271018 1 37 C-4.55531248 37.5072965 -9.41830236 37.76260422 -14.5 35.3125 C-18.74198845 31.38866068 -22.50547234 27.35237698 -23.37109375 21.484375 C-23.53742557 14.63541764 -22.53572475 10.22594373 -18 5 C-12.12627929 -0.32732809 -7.75290565 -0.59299845 0 0 Z " fill="#06E29C" transform="translate(71,258)"/>
<path d="M0 0 C0.65407333 -0.00058411 1.30814667 -0.00116821 1.98204041 -0.00177002 C4.13603476 0.00100857 6.28863138 0.03208609 8.44238281 0.06347656 C9.93881474 0.07093985 11.43525646 0.07663237 12.93170166 0.08062744 C16.86435071 0.09587717 20.79640589 0.13515244 24.7288208 0.17944336 C28.74393684 0.22041083 32.75914913 0.23864156 36.77441406 0.25878906 C44.64838407 0.30164808 52.521872 0.36989053 60.39550781 0.45410156 C59.08820031 3.8934199 57.58514447 7.06711061 55.77050781 10.26660156 C55.10148437 11.45189453 55.10148437 11.45189453 54.41894531 12.66113281 C53.91234375 13.54865234 53.91234375 13.54865234 53.39550781 14.45410156 C45.64165724 14.5468223 37.88793676 14.61787664 30.13367081 14.66135025 C26.53292496 14.68221669 22.93255866 14.71051577 19.33203125 14.75585938 C15.85662868 14.79935281 12.38159094 14.82324578 8.90593719 14.83361053 C6.93604998 14.84458771 4.96630934 14.87580856 2.99664307 14.9072876 C1.19522858 14.90774078 1.19522858 14.90774078 -0.64257812 14.90820312 C-2.22809479 14.92152679 -2.22809479 14.92152679 -3.84564209 14.93511963 C-7.31402351 14.33039155 -8.48352723 13.21506331 -10.60449219 10.45410156 C-11.10449219 7.45410156 -11.10449219 7.45410156 -10.60449219 4.45410156 C-7.46389445 0.26438761 -5.10758303 -0.03840288 0 0 Z " fill="#99A8E5" transform="translate(138.6044921875,364.5458984375)"/>
<path d="M0 0 C3.54716161 0.92534651 4.8359534 1.69143011 6.875 4.75 C7.61428011 11.01077845 5.85432362 14.37127193 2.5 19.375 C2.05027832 20.06722656 1.60055664 20.75945312 1.13720703 21.47265625 C-5.39211035 31.38140104 -12.42703872 40.62763909 -21.125 48.75 C-21.785 49.41 -22.445 50.07 -23.125 50.75 C-25.83934415 49.56247444 -27.23197449 48.9342602 -29.125 46.75 C-30.29962273 42.8666844 -30.15479685 39.65902478 -29.125 35.75 C-27.25975405 33.08536293 -25.15370044 30.96870516 -22.8359375 28.6875 C-18.97168388 24.50029723 -16.11126028 19.81346785 -13.1081543 14.98974609 C-10.83023892 11.34593226 -8.49626611 7.76415562 -5.98828125 4.2734375 C-5.51559814 3.61520996 -5.04291504 2.95698242 -4.5559082 2.27880859 C-3.125 0.75 -3.125 0.75 0 0 Z " fill="#FDC201" transform="translate(433.125,324.25)"/>
<path d="M0 0 C5.749818 3.7525128 10.26378312 9.3204328 14.75 14.4453125 C16.23870787 16.13561623 17.75963373 17.79812868 19.3125 19.4296875 C24.6793204 25.12235057 24.6793204 25.12235057 26.1875 29.25 C25.95848775 32.6088464 25.04463971 34.34954112 23 37 C19.98221063 38.50889469 18.37677363 38.50026276 15 38 C9.89928913 34.6064236 5.85857762 29.90237342 1.9375 25.24609375 C0.4599957 23.53326114 -1.07122075 21.86661019 -2.625 20.22265625 C-3.07955566 19.74086914 -3.53411133 19.25908203 -4.00244141 18.76269531 C-5.31646062 17.37435057 -6.63852028 15.99362914 -7.9609375 14.61328125 C-10.08306307 11.89354561 -10.81441461 10.41364642 -11 7 C-8.56026708 0.95875657 -6.64980197 -0.98515585 0 0 Z " fill="#3F6F93" transform="translate(467,414)"/>
<path d="M0 0 C3.36344489 2.48602449 4.80057749 3.91425523 5.5625 8.0625 C4.85999177 11.73115412 3.85272609 12.63429601 1 15 C-1.98925781 16.28027344 -1.98925781 16.28027344 -5.453125 17.359375 C-6.71253906 17.75253906 -7.97195313 18.14570313 -9.26953125 18.55078125 C-9.9238916 18.74752441 -10.57825195 18.94426758 -11.25244141 19.14697266 C-13.23546997 19.74561364 -15.20934057 20.36919819 -17.18359375 20.99609375 C-29.42140231 24.80149381 -29.42140231 24.80149381 -36 24 C-38.5625 21.9375 -38.5625 21.9375 -40 19 C-39.94225156 15.65059073 -39.86822533 13.19193266 -37.85668945 10.43041992 C-35.2155592 8.39565567 -32.54335994 7.6958656 -29.35546875 6.73828125 C-28.70806229 6.54276169 -28.06065582 6.34724213 -27.39363098 6.14579773 C-26.02578269 5.73532903 -24.65648817 5.32965319 -23.28588867 4.9284668 C-21.20132036 4.31655687 -19.12312726 3.68587409 -17.04492188 3.05273438 C-15.71127735 2.65510834 -14.37730264 2.25858778 -13.04296875 1.86328125 C-11.83664795 1.50532471 -10.63032715 1.14736816 -9.38745117 0.77856445 C-6.07540441 0.01733079 -3.38008693 -0.30755447 0 0 Z " fill="#3F6F93" transform="translate(507,368)"/>
<path d="M0 0 C3.5 0.9375 3.5 0.9375 5.5 2.5625 C6.95103128 6.0086993 6.24165436 8.29258559 5.5 11.9375 C4.43489021 14.54048372 3.34849999 16.95266016 2.0625 19.4375 C1.71558105 20.12094482 1.36866211 20.80438965 1.01123047 21.50854492 C-2.91149659 29.03703717 -7.64892479 35.98549444 -12.5 42.9375 C-13.16 43.9275 -13.82 44.9175 -14.5 45.9375 C-15.16 45.9375 -15.82 45.9375 -16.5 45.9375 C-17.54115423 44.24147484 -18.55718378 42.53001063 -19.5625 40.8125 C-20.13097656 39.86117187 -20.69945312 38.90984375 -21.28515625 37.9296875 C-22.73930378 34.34808939 -22.57558398 32.61449638 -21.5 28.9375 C-20.40625 26.98046875 -20.40625 26.98046875 -19 25.125 C-15.33878563 19.95674824 -12.518501 14.42715324 -9.66015625 8.78979492 C-9.2940625 8.07799072 -8.92796875 7.36618652 -8.55078125 6.6328125 C-8.22762939 5.99359863 -7.90447754 5.35438477 -7.5715332 4.69580078 C-5.34206971 1.03742847 -4.44155095 -0.07931341 0 0 Z " fill="#FDC201" transform="translate(415.5,296.0625)"/>
<path d="M0 0 C3.44383268 0.82111656 6.85707821 1.72146259 10.27294922 2.65185547 C12.0412207 3.10238281 12.0412207 3.10238281 13.84521484 3.56201172 C14.9725 3.86494141 16.09978516 4.16787109 17.26123047 4.47998047 C18.79517456 4.88845215 18.79517456 4.88845215 20.36010742 5.30517578 C23.34637297 6.56461667 24.38961754 7.59635597 25.96044922 10.40185547 C26.46044922 13.90185547 26.46044922 13.90185547 25.96044922 17.40185547 C24.02294922 19.90185547 24.02294922 19.90185547 20.96044922 21.40185547 C13.98385889 20.99186975 7.4448865 19.45865572 0.71044922 17.65185547 C-0.73974609 17.29220703 -0.73974609 17.29220703 -2.21923828 16.92529297 C-7.85864618 15.41834375 -11.49054352 14.14130542 -15.03955078 9.40185547 C-15.71019136 5.75059011 -15.52153393 4.16499545 -13.53955078 1.02685547 C-9.2495689 -1.76163275 -4.82493056 -0.94948433 0 0 Z " fill="#3F6F93" transform="translate(477.03955078125,396.59814453125)"/>
<path d="M0 0 C9.51143496 3.92315155 20.2199769 10.32996534 26 19 C26.46155369 22.61550392 26.45406883 24.33636094 24.375 27.375 C21.28244531 29.49095847 19.699452 29.41510497 16 29 C13.46484375 27.27734375 13.46484375 27.27734375 10.9375 24.9375 C6.82495189 21.33267388 2.91103993 18.77850784 -2 16.375 C-8.6433174 13.00999818 -8.6433174 13.00999818 -10.3125 9.0625 C-10.6528125 7.5465625 -10.6528125 7.5465625 -11 6 C-7.47571028 1.41842336 -5.92293436 -0.5285338 0 0 Z " fill="#9DC6FA" transform="translate(267,338)"/>
<path d="M0 0 C3.47605329 0.42563918 4.84550364 0.6463891 7.0625 3.375 C7.87300637 10.40958355 5.9867088 14.14777634 2.0625 19.875 C1.58554687 20.60203125 1.10859375 21.3290625 0.6171875 22.078125 C-0.55149542 23.85452304 -1.74229314 25.61633848 -2.9375 27.375 C-8.2297317 26.72061841 -12.16328062 25.61596012 -16.9375 23.375 C-15.31282111 18.8258991 -12.98704299 14.86426821 -10.5 10.75 C-10.10490234 10.08226562 -9.70980469 9.41453125 -9.30273438 8.7265625 C-8.91537109 8.08203125 -8.52800781 7.4375 -8.12890625 6.7734375 C-7.78029541 6.19255371 -7.43168457 5.61166992 -7.07250977 5.01318359 C-4.93611054 1.92967341 -3.81947828 0.48759297 0 0 Z " fill="#FDC202" transform="translate(364.9375,274.625)"/>
<path d="M0 0 C0 0.33 0 0.66 0 1 C-6.34241995 2.15316726 -12.56688704 2.09507063 -19 2 C-12.70538432 -1.36092602 -6.73257894 -3.10734413 0 0 Z " fill="#ACCFFC" transform="translate(416,453)"/>
<path d="M0 0 C5.61 0 11.22 0 17 0 C17.33 0.99 17.66 1.98 18 3 C12.06 2.34 6.12 1.68 0 1 C0 0.67 0 0.34 0 0 Z " fill="#A4C6F8" transform="translate(236,342)"/>
</svg>
