<?xml version="1.0" encoding="UTF-8"?>
<svg version="1.1" xmlns="http://www.w3.org/2000/svg" width="512" height="512">
<path d="M0 0 C1.06889969 0.38130066 2.13779938 0.76260132 3.23908997 1.15545654 C6.70530294 2.39669757 10.16113125 3.66437706 13.6171875 4.93359375 C16.01968124 5.8019874 18.42276435 6.66875212 20.82641602 7.53393555 C25.69630734 9.28870095 30.5626162 11.05297323 35.42724609 12.82226562 C41.97661998 15.19606347 48.55094599 17.49122719 55.13671875 19.76171875 C57.9984876 20.7552492 60.85977823 21.75014321 63.72088623 22.74557495 C65.511116 23.36550569 67.3029702 23.9807673 69.09649658 24.59109497 C71.57619252 25.43677179 74.04825938 26.30194215 76.51953125 27.171875 C77.23067581 27.40872009 77.94182037 27.64556519 78.67451477 27.8895874 C83.64828646 29.67058567 88.22469803 32.11552854 91.4921875 36.37109375 C93.55546877 41.84138013 93.77893096 46.83104867 93.75097656 52.58496094 C93.75623352 53.93059868 93.75623352 53.93059868 93.76159668 55.30342102 C93.77036937 58.25834999 93.76457456 61.21303747 93.7578125 64.16796875 C93.75916184 66.24237107 93.76110462 68.31677307 93.76361084 70.39117432 C93.76655728 74.74209601 93.76228511 79.09293553 93.75292969 83.44384766 C93.74162093 88.96726532 93.74804283 94.49048672 93.76007462 100.01389694 C93.76737959 104.30384741 93.76496471 108.59375315 93.75981903 112.88370514 C93.75850179 114.91665928 93.76006117 116.94961774 93.76477814 118.98256683 C93.78279581 128.94276251 93.62704319 138.81269441 92.60839844 148.72753906 C92.49380468 149.84861368 92.49380468 149.84861368 92.3768959 150.99233627 C89.09792679 179.45026816 72.58732983 202.69768528 50.5769043 220.20556641 C41.34059995 227.36987207 31.61614529 233.54748206 21.4921875 239.37109375 C20.36031006 240.02271484 20.36031006 240.02271484 19.20556641 240.6875 C14.72968309 243.24787723 10.22350554 245.74482566 5.68261719 248.18798828 C4.2205129 248.97770711 2.76279666 249.77560379 1.30957031 250.58154297 C-0.78541341 251.74114734 -2.89374231 252.87174447 -5.0078125 253.99609375 C-5.92264404 254.51079224 -5.92264404 254.51079224 -6.85595703 255.03588867 C-11.99619976 257.6990147 -16.78375685 258.22403417 -22.5078125 257.37109375 C-25.8175108 256.29649838 -28.77124875 254.78611682 -31.8203125 253.12109375 C-32.67206055 252.67435303 -33.52380859 252.2276123 -34.40136719 251.76733398 C-37.11856254 250.32807422 -39.81450095 248.8545136 -42.5078125 247.37109375 C-43.40097168 246.88463379 -44.29413086 246.39817383 -45.21435547 245.89697266 C-77.76510743 228.08573888 -112.57901687 204.91424898 -123.73046875 167.4296875 C-126.3608706 158.01813702 -127.65878598 149.34278048 -127.68481445 139.59570312 C-127.69138565 138.52181839 -127.69795685 137.44793365 -127.70472717 136.34150696 C-127.72438748 132.79928512 -127.73610327 129.25710542 -127.74609375 125.71484375 C-127.75016928 124.50322067 -127.7542448 123.2915976 -127.75844383 122.04325867 C-127.77926816 115.63675102 -127.79358864 109.2302646 -127.80297852 102.82373047 C-127.81406768 96.20594207 -127.84850718 89.5884876 -127.88815022 82.97081757 C-127.9142694 77.88018155 -127.92266593 72.78962596 -127.92625999 67.69892883 C-127.93113385 65.25887279 -127.94277042 62.81882053 -127.96129799 60.37882996 C-127.98560054 56.96777593 -127.98474084 53.55759816 -127.9777832 50.14648438 C-127.99059326 49.13955032 -128.00340332 48.13261627 -128.01660156 47.09516907 C-127.97384772 41.34721095 -127.47057573 37.85745658 -123.5078125 33.37109375 C-120.64134471 30.75479259 -117.76665154 29.56808047 -114.1171875 28.30908203 C-113.03123291 27.93041489 -111.94527832 27.55174774 -110.82641602 27.16160583 C-109.64877686 26.75893997 -108.4711377 26.35627411 -107.2578125 25.94140625 C-105.37409691 25.28695699 -103.49038214 24.63250537 -101.60670471 23.97794628 C-98.92808784 23.04919702 -96.24720165 22.12709099 -93.56634521 21.20483017 C-88.08013473 19.31597159 -82.59801266 17.41525132 -77.11605835 15.51408195 C-75.75078609 15.04065239 -74.38540902 14.567525 -73.01992798 14.09469795 C-64.62650075 11.18685623 -56.26242617 8.21460328 -47.9453125 5.09375 C-47.11209473 4.78302551 -46.27887695 4.47230103 -45.42041016 4.15216064 C-41.71089002 2.76728439 -38.01002282 1.36502198 -34.3203125 -0.07177734 C-33.02895876 -0.55649856 -31.73731177 -1.04043956 -30.4453125 -1.5234375 C-29.38183594 -1.93440674 -28.31835938 -2.34537598 -27.22265625 -2.76879883 C-17.46821683 -5.02726952 -9.22551754 -3.44313288 0 0 Z " fill="#FEFEFE" transform="translate(273.5078125,26.62890625)"/>
<path d="M0 0 C6.85426293 5.7965063 10.24478722 13.21679358 11.1551857 22.11488533 C11.2403751 24.73582548 11.23317544 27.33927458 11.18798828 29.96118164 C11.1837233 30.94304947 11.17945831 31.9249173 11.17506409 32.9365387 C11.16482794 35.050287 11.14819978 37.16401237 11.12573624 39.27766609 C11.09325671 42.62902409 11.08478358 45.97965403 11.08346558 49.3311615 C11.07787761 58.8533538 11.04864104 68.3749455 10.95703125 77.89672852 C10.90254487 83.73764257 10.89194817 89.57727086 10.90917587 95.41839409 C10.90723784 97.63552883 10.88884995 99.85271509 10.85336685 102.06956673 C10.27215256 113.92179069 10.27215256 113.92179069 13.8258667 124.89108276 C16.06987718 127.17142429 18.22368348 128.86825684 20.8984375 130.60546875 C22.26599063 131.77752765 23.62157644 132.96379452 24.9609375 134.16796875 C25.9303125 134.97234375 26.8996875 135.77671875 27.8984375 136.60546875 C28.6821875 135.55359375 29.4659375 134.50171875 30.2734375 133.41796875 C34.7988026 128.21591354 40.05064151 125.12611125 46.9296875 124.1953125 C58.60642875 123.85621522 64.68894596 127.71751814 73.34179688 135.25048828 C74.97191426 136.66942672 76.61345393 138.07415955 78.2578125 139.4765625 C80.62812847 141.50010817 82.99363311 143.52906341 85.35546875 145.5625 C88.70986707 148.44777733 92.08162561 151.31193819 95.4609375 154.16796875 C95.98880859 154.61479004 96.51667969 155.06161133 97.06054688 155.52197266 C99.81806684 157.85441705 102.58236719 160.17828603 105.35546875 162.4921875 C125.09696144 178.9914949 140.05544758 199.30287627 142.8984375 225.60546875 C144.03835241 241.01722014 143.30884304 255.82335583 137.85742188 270.38647461 C136.81427544 273.88797303 136.58122927 276.88697887 136.484375 280.53515625 C136.42636719 282.46875 136.42636719 282.46875 136.3671875 284.44140625 C136.33573992 285.78775582 136.30449239 287.13411007 136.2734375 288.48046875 C136.23520709 289.85028389 136.19615249 291.2200763 136.15625 292.58984375 C136.06221035 295.92825138 135.97655693 299.26665689 135.8984375 302.60546875 C136.92324219 302.5590625 137.94804687 302.51265625 139.00390625 302.46484375 C140.36455406 302.42730864 141.72523355 302.39091034 143.0859375 302.35546875 C144.09624023 302.30519531 144.09624023 302.30519531 145.12695312 302.25390625 C148.68677294 302.18444635 150.70900878 302.48865868 153.76171875 304.37109375 C157.17088266 307.93606954 158.14553872 310.64819502 158.18896484 315.55419922 C158.20172455 316.53556854 158.21448425 317.51693787 158.22763062 318.52804565 C158.22985626 319.58226715 158.23208191 320.63648865 158.234375 321.72265625 C158.2443602 323.35752487 158.2443602 323.35752487 158.25454712 325.02542114 C158.26466874 327.33024407 158.26936429 329.63509628 158.26904297 331.93994141 C158.27341266 335.46045401 158.30972952 338.97970945 158.34765625 342.5 C158.35352521 344.74088114 158.35749407 346.98176822 158.359375 349.22265625 C158.37374603 350.27282928 158.38811707 351.32300232 158.40292358 352.40499878 C158.36524981 358.45210116 157.98812263 362.0329029 153.8984375 366.60546875 C150.57671933 368.81994753 149.54305997 368.85912834 145.67398071 368.87289429 C144.05049461 368.88568924 144.05049461 368.88568924 142.39421082 368.89874268 C141.2066066 368.8978363 140.01900238 368.89692993 138.79541016 368.89599609 C136.91948433 368.90607193 136.91948433 368.90607193 135.00566101 368.91635132 C131.57372007 368.9321129 128.14202111 368.93870744 124.7100606 368.93998289 C121.84478717 368.94188194 118.97953696 368.94923958 116.11427248 368.95632708 C109.35351343 368.97261563 102.59280766 368.97749564 95.83203125 368.97607422 C88.85928182 368.97487285 81.88684195 368.99597235 74.91417086 369.02756155 C68.92680583 369.05371968 62.93954192 369.06444171 56.95212018 369.0631634 C53.37652481 369.06265359 49.80120448 369.06834652 46.22566605 369.0895195 C42.2370725 369.11249323 38.24890287 369.10338371 34.26025391 369.09130859 C33.07669815 369.10254761 31.8931424 369.11378662 30.67372131 369.12536621 C22.67037831 369.06365472 22.67037831 369.06365472 18.68832397 366.70010376 C15.94172987 363.48587076 15.76242299 361.65555968 15.70556641 357.50073242 C15.68950348 356.43590134 15.67344055 355.37107025 15.65689087 354.27397156 C15.61250557 349.40197329 15.57137897 344.53011206 15.54833984 339.65795898 C15.53177229 337.08657791 15.50447221 334.51524303 15.46630859 331.9440918 C15.41161197 328.24113008 15.38967591 324.5392485 15.375 320.8359375 C15.35233063 319.68683395 15.32966125 318.53773041 15.30630493 317.35380554 C15.32987119 308.47078336 15.32987119 308.47078336 18.30615234 305.40356445 C22.52118406 302.47987745 25.5218714 302.48298687 30.5234375 302.54296875 C31.58304688 302.54973633 31.58304688 302.54973633 32.6640625 302.55664062 C34.40889025 302.56843 36.1536745 302.58636551 37.8984375 302.60546875 C37.78724586 299.27152748 37.65694016 295.93858526 37.5234375 292.60546875 C37.4925 291.67089844 37.4615625 290.73632812 37.4296875 289.7734375 C36.88755758 276.85267437 32.61192539 269.49503055 24.3984375 259.73046875 C18.17850879 252.2534495 12.28263646 244.59349266 6.50830078 236.77001953 C4.76809056 234.43021004 3.00542914 232.10858795 1.23828125 229.7890625 C-26.71746567 193.0328293 -39.61844136 162.70625199 -39.53747058 116.12844419 C-39.53433514 113.33481165 -39.54051701 110.54122764 -39.54650933 107.74760211 C-39.56043359 101.15802643 -39.5590891 94.5685808 -39.54760742 87.97900391 C-39.53607383 81.2104744 -39.55031665 74.44233872 -39.5770039 67.67386091 C-39.59920489 61.82112822 -39.60579029 55.96851886 -39.59992748 50.11574709 C-39.59657491 46.63752728 -39.59886153 43.15956119 -39.61617851 39.68137741 C-39.63461185 35.81265632 -39.62041537 31.94441812 -39.60327148 28.07568359 C-39.61293945 26.9409964 -39.62260742 25.8063092 -39.63256836 24.63723755 C-39.55960597 16.7584955 -38.09486977 10.72213843 -33.42578125 4.30078125 C-24.35397244 -4.40295894 -11.1303436 -7.38574845 0 0 Z " fill="#FEC775" transform="translate(62.1015625,120.39453125)"/>
<path d="M0 0 C6.61845052 4.00815645 11.72967371 10.07547817 13.625 17.5625 C13.92256493 21.60560744 13.90842313 25.6395368 13.8996582 29.69213867 C13.90476913 30.9109523 13.90988007 32.12976593 13.91514587 33.38551331 C13.92664842 36.72112029 13.92911677 40.05647832 13.92658257 43.3920877 C13.9255084 46.19157189 13.93040886 48.99103353 13.935188 51.79051286 C13.94627788 58.41333772 13.94672691 65.0361059 13.94067383 71.65893555 C13.93466688 78.44340098 13.94686208 85.22765729 13.9682439 92.01208705 C13.98600954 97.86894538 13.99183704 103.72573814 13.98860615 109.58262235 C13.98681292 113.06578675 13.98922686 116.54880284 14.00332069 120.03194237 C14.22710609 180.64882205 -14.99851903 217.68104189 -51.4453125 263.41796875 C-51.94619385 264.04904541 -52.4470752 264.68012207 -52.96313477 265.33032227 C-53.92157329 266.53761517 -54.88284892 267.74266309 -55.84741211 268.94506836 C-62.28890611 277.07330656 -62.52058595 284.34954698 -62.9375 294.4375 C-62.98068359 295.41203125 -63.02386719 296.3865625 -63.06835938 297.390625 C-63.17382274 299.78112802 -63.27594175 302.17172444 -63.375 304.5625 C-62.35019531 304.52769531 -61.32539063 304.49289062 -60.26953125 304.45703125 C-58.90887064 304.42887965 -57.5481922 304.40158096 -56.1875 304.375 C-55.17719727 304.33729492 -55.17719727 304.33729492 -54.14648438 304.29882812 C-49.66644333 304.23326655 -46.91462366 304.78645146 -43.375 307.5625 C-41.1683208 310.8725188 -41.11582114 311.92547798 -41.08447266 315.78076172 C-41.07171295 316.84551727 -41.05895325 317.91027283 -41.04580688 319.0072937 C-41.04358124 320.15730865 -41.04135559 321.30732361 -41.0390625 322.4921875 C-41.0290773 324.26591232 -41.0290773 324.26591232 -41.01889038 326.07546997 C-41.00875769 328.57878054 -41.00407355 331.08211816 -41.00439453 333.58544922 C-41.00002511 337.41549229 -40.96371996 341.24437994 -40.92578125 345.07421875 C-40.91991255 347.50520439 -40.91594351 349.93619551 -40.9140625 352.3671875 C-40.89969147 353.51315399 -40.88532043 354.65912048 -40.87051392 355.83981323 C-40.9161959 363.79139374 -40.9161959 363.79139374 -43.27880859 367.76220703 C-46.50393692 370.53207615 -48.30319486 370.69074527 -52.47920227 370.70967102 C-53.56015167 370.71682632 -54.64110107 370.72398163 -55.75480652 370.73135376 C-56.94600601 370.73404266 -58.13720551 370.73673157 -59.36450195 370.73950195 C-60.61497314 370.74607315 -61.86544434 370.75264435 -63.15380859 370.75941467 C-66.58987913 370.77577109 -70.02588804 370.78737724 -73.46198297 370.7956202 C-75.60850469 370.80076979 -77.75502209 370.80684554 -79.90154076 370.81313133 C-86.61685338 370.83218439 -93.332155 370.8464152 -100.04748946 370.8547433 C-107.80042766 370.86451679 -115.55308043 370.89083843 -123.30591804 370.93124419 C-129.29749683 370.96139963 -135.28899377 370.97621162 -141.28064698 370.97952431 C-144.8596288 370.9818755 -148.43830574 370.99084421 -152.01720619 371.01598549 C-156.01075852 371.04358617 -160.00367284 371.03943692 -163.99731445 371.0324707 C-165.18244125 371.04528076 -166.36756805 371.05809082 -167.58860779 371.07128906 C-175.56465581 371.02045028 -175.56465581 371.02045028 -179.52360535 368.78312683 C-182.65790081 365.02374436 -183.62217791 362.51111053 -183.66552734 357.61376953 C-183.67828705 356.63240021 -183.69104675 355.65103088 -183.70419312 354.6399231 C-183.70641876 353.5857016 -183.70864441 352.5314801 -183.7109375 351.4453125 C-183.7175943 350.35540009 -183.7242511 349.26548767 -183.73110962 348.14254761 C-183.74123124 345.83772468 -183.74592679 343.53287247 -183.74560547 341.22802734 C-183.74997516 337.70751474 -183.78629202 334.1882593 -183.82421875 330.66796875 C-183.83008771 328.42708761 -183.83405657 326.18620053 -183.8359375 323.9453125 C-183.85030853 322.89513947 -183.86467957 321.84496643 -183.87948608 320.76296997 C-183.84181231 314.71586759 -183.46468513 311.13506585 -179.375 306.5625 C-175.69412647 304.10858431 -172.93144412 304.33447241 -168.6875 304.4375 C-167.98560547 304.44652344 -167.28371094 304.45554687 -166.56054688 304.46484375 C-164.83188475 304.48836296 -163.10339855 304.52423287 -161.375 304.5625 C-161.31794043 282.84264131 -161.31794043 282.84264131 -166.21875 261.84765625 C-173.47278867 241.23736396 -167.77720208 216.27367392 -158.8125 197.24609375 C-151.51529899 182.9388501 -140.83595644 172.01312983 -128.4296875 162.046875 C-125.02481631 159.27769587 -121.697045 156.42991607 -118.375 153.5625 C-113.32071623 149.20862003 -108.22231035 144.92148659 -103.03125 140.73046875 C-101.17680316 139.21691287 -99.34498822 137.67538821 -97.53125 136.11328125 C-89.25246112 129.05129238 -83.44235492 125.8318508 -72.40625 126.15234375 C-65.55705575 127.07910328 -60.63366953 129.94042301 -56.22802734 135.17358398 C-55.69237152 135.80723373 -55.1567157 136.44088348 -54.60482788 137.09373474 C-54.19898468 137.57842728 -53.79314148 138.06311981 -53.375 138.5625 C-45.98907687 133.41439468 -37.73713436 127.62744212 -35.92660522 118.3309021 C-35.28426793 112.26581141 -35.49475245 106.221189 -35.69921875 100.13671875 C-35.71427955 97.89528601 -35.72177577 95.65379105 -35.72212219 93.41230774 C-35.74107468 87.54981028 -35.85276398 81.692926 -35.9876709 75.83209229 C-36.13636318 68.71414654 -36.18635494 61.59496881 -36.23842335 54.47575855 C-36.27898571 48.93666349 -36.33780451 43.40024148 -36.45695496 37.86222839 C-36.48918077 35.84915249 -36.52135414 33.83607575 -36.5534668 31.82299805 C-36.5800386 30.92874115 -36.60661041 30.03448425 -36.63398743 29.11312866 C-36.74343961 20.32014047 -34.86466051 12.19762837 -29.1484375 5.32421875 C-21.455225 -2.31815754 -10.12453782 -4.31341256 0 0 Z " fill="#FEC775" transform="translate(475.375,118.4375)"/>
<path d="M0 0 C1.06889969 0.38130066 2.13779938 0.76260132 3.23908997 1.15545654 C6.70530294 2.39669757 10.16113125 3.66437706 13.6171875 4.93359375 C16.01968124 5.8019874 18.42276435 6.66875212 20.82641602 7.53393555 C25.69630734 9.28870095 30.5626162 11.05297323 35.42724609 12.82226562 C41.97661998 15.19606347 48.55094599 17.49122719 55.13671875 19.76171875 C57.9984876 20.7552492 60.85977823 21.75014321 63.72088623 22.74557495 C65.511116 23.36550569 67.3029702 23.9807673 69.09649658 24.59109497 C71.57619252 25.43677179 74.04825938 26.30194215 76.51953125 27.171875 C77.23067581 27.40872009 77.94182037 27.64556519 78.67451477 27.8895874 C83.64828646 29.67058567 88.22469803 32.11552854 91.4921875 36.37109375 C93.55546877 41.84138013 93.77893096 46.83104867 93.75097656 52.58496094 C93.75623352 53.93059868 93.75623352 53.93059868 93.76159668 55.30342102 C93.77036937 58.25834999 93.76457456 61.21303747 93.7578125 64.16796875 C93.75916184 66.24237107 93.76110462 68.31677307 93.76361084 70.39117432 C93.76655728 74.74209601 93.76228511 79.09293553 93.75292969 83.44384766 C93.74162093 88.96726532 93.74804283 94.49048672 93.76007462 100.01389694 C93.76737959 104.30384741 93.76496471 108.59375315 93.75981903 112.88370514 C93.75850179 114.91665928 93.76006117 116.94961774 93.76477814 118.98256683 C93.78279581 128.94276251 93.62704319 138.81269441 92.60839844 148.72753906 C92.49380468 149.84861368 92.49380468 149.84861368 92.3768959 150.99233627 C89.09792679 179.45026816 72.58732983 202.69768528 50.5769043 220.20556641 C41.34059995 227.36987207 31.61614529 233.54748206 21.4921875 239.37109375 C20.36031006 240.02271484 20.36031006 240.02271484 19.20556641 240.6875 C14.72968309 243.24787723 10.22350554 245.74482566 5.68261719 248.18798828 C4.2205129 248.97770711 2.76279666 249.77560379 1.30957031 250.58154297 C-0.78541341 251.74114734 -2.89374231 252.87174447 -5.0078125 253.99609375 C-5.92264404 254.51079224 -5.92264404 254.51079224 -6.85595703 255.03588867 C-11.99619976 257.6990147 -16.78375685 258.22403417 -22.5078125 257.37109375 C-25.8175108 256.29649838 -28.77124875 254.78611682 -31.8203125 253.12109375 C-32.67206055 252.67435303 -33.52380859 252.2276123 -34.40136719 251.76733398 C-37.11856254 250.32807422 -39.81450095 248.8545136 -42.5078125 247.37109375 C-43.40097168 246.88463379 -44.29413086 246.39817383 -45.21435547 245.89697266 C-77.76510743 228.08573888 -112.57901687 204.91424898 -123.73046875 167.4296875 C-126.3608706 158.01813702 -127.65878598 149.34278048 -127.68481445 139.59570312 C-127.69138565 138.52181839 -127.69795685 137.44793365 -127.70472717 136.34150696 C-127.72438748 132.79928512 -127.73610327 129.25710542 -127.74609375 125.71484375 C-127.75016928 124.50322067 -127.7542448 123.2915976 -127.75844383 122.04325867 C-127.77926816 115.63675102 -127.79358864 109.2302646 -127.80297852 102.82373047 C-127.81406768 96.20594207 -127.84850718 89.5884876 -127.88815022 82.97081757 C-127.9142694 77.88018155 -127.92266593 72.78962596 -127.92625999 67.69892883 C-127.93113385 65.25887279 -127.94277042 62.81882053 -127.96129799 60.37882996 C-127.98560054 56.96777593 -127.98474084 53.55759816 -127.9777832 50.14648438 C-127.99059326 49.13955032 -128.00340332 48.13261627 -128.01660156 47.09516907 C-127.97384772 41.34721095 -127.47057573 37.85745658 -123.5078125 33.37109375 C-120.64134471 30.75479259 -117.76665154 29.56808047 -114.1171875 28.30908203 C-113.03123291 27.93041489 -111.94527832 27.55174774 -110.82641602 27.16160583 C-109.64877686 26.75893997 -108.4711377 26.35627411 -107.2578125 25.94140625 C-105.37409691 25.28695699 -103.49038214 24.63250537 -101.60670471 23.97794628 C-98.92808784 23.04919702 -96.24720165 22.12709099 -93.56634521 21.20483017 C-88.08013473 19.31597159 -82.59801266 17.41525132 -77.11605835 15.51408195 C-75.75078609 15.04065239 -74.38540902 14.567525 -73.01992798 14.09469795 C-64.62650075 11.18685623 -56.26242617 8.21460328 -47.9453125 5.09375 C-47.11209473 4.78302551 -46.27887695 4.47230103 -45.42041016 4.15216064 C-41.71089002 2.76728439 -38.01002282 1.36502198 -34.3203125 -0.07177734 C-33.02895876 -0.55649856 -31.73731177 -1.04043956 -30.4453125 -1.5234375 C-29.38183594 -1.93440674 -28.31835938 -2.34537598 -27.22265625 -2.76879883 C-17.46821683 -5.02726952 -9.22551754 -3.44313288 0 0 Z M-25.24755859 32.21948242 C-26.98119156 32.82592842 -26.98119156 32.82592842 -28.74984741 33.44462585 C-30.01036347 33.89263488 -31.2708297 34.34078415 -32.53125 34.7890625 C-33.83702108 35.24844423 -35.14298356 35.70728225 -36.4491272 36.16560364 C-39.89477104 37.37635672 -43.33770816 38.59463477 -46.78015137 39.81445312 C-50.23331166 41.03654109 -53.68904629 42.25130128 -57.14453125 43.46679688 C-63.41834965 45.67528784 -69.69081065 47.8875502 -75.9586792 50.11288452 C-78.4641072 51.00108803 -80.97083157 51.88482772 -83.47930908 52.76431274 C-84.76698894 53.21822202 -86.05464828 53.67218952 -87.34228516 54.1262207 C-88.50055817 54.53282425 -89.65883118 54.9394278 -90.85220337 55.35835266 C-93.39309114 56.12012849 -93.39309114 56.12012849 -94.5078125 57.37109375 C-94.62432742 60.09674562 -94.67582884 62.79738975 -94.68481445 65.52416992 C-94.69138565 66.3796492 -94.69795685 67.23512848 -94.70472717 68.11653137 C-94.72453281 70.96570925 -94.73614675 73.81483392 -94.74609375 76.6640625 C-94.75016928 77.63860193 -94.7542448 78.61314137 -94.75844383 79.6172123 C-94.7793482 84.78801895 -94.79362369 89.95879883 -94.80297852 95.12963867 C-94.81397487 100.44309722 -94.84828285 105.75612905 -94.88815022 111.06943798 C-94.91446994 115.17475594 -94.92268452 119.27997537 -94.92625999 123.38537025 C-94.93109653 125.34154411 -94.94262553 127.29771445 -94.96129799 129.25380516 C-95.15405168 150.80876157 -90.40567366 168.75259234 -75.12646484 184.76855469 C-62.06452724 197.70046395 -45.71988924 207.16121307 -29.8203125 216.12109375 C-28.88759521 216.65927734 -27.95487793 217.19746094 -26.99389648 217.75195312 C-22.0248581 220.50896432 -22.0248581 220.50896432 -16.52734375 221.546875 C-11.75847726 219.68991664 -7.34401317 217.30595991 -2.8828125 214.80859375 C-1.89804932 214.26283691 -0.91328613 213.71708008 0.10131836 213.15478516 C7.14887391 209.21122604 13.95784308 205.12847257 20.4921875 200.37109375 C21.54277344 199.61570313 22.59335937 198.8603125 23.67578125 198.08203125 C40.00937201 186.08927371 53.69171346 171.68079163 58.4921875 151.37109375 C59.33001352 145.72379227 59.63215583 140.27136706 59.60571289 134.56835938 C59.60593193 133.30839645 59.60593193 133.30839645 59.6061554 132.02297974 C59.60546433 129.27440721 59.59771006 126.52590429 59.58984375 123.77734375 C59.5879767 121.86063677 59.58655415 119.94392931 59.58555603 118.02722168 C59.58175345 113.0032823 59.57194262 107.97937221 59.56085205 102.95544434 C59.55058919 97.82056067 59.546048 92.68567223 59.54101562 87.55078125 C59.53031818 77.4908726 59.5132691 67.43098562 59.4921875 57.37109375 C51.53495764 53.95608486 43.52554428 50.88303128 35.33203125 48.0859375 C34.22090469 47.70297012 33.10977814 47.32000275 31.96498108 46.9254303 C28.45445208 45.71619002 24.94216538 44.51215994 21.4296875 43.30859375 C17.9140003 42.10043139 14.39869698 40.89116294 10.88368225 39.68104553 C8.70921291 38.93280826 6.53430536 38.18584268 4.35887146 37.44041443 C3.3573555 37.09648148 2.35583954 36.75254852 1.32397461 36.39819336 C0.35773163 36.06649139 -0.60851135 35.73478943 -1.60403442 35.39303589 C-5.47353597 34.03122153 -9.3061922 32.57536862 -13.1337738 31.10011292 C-17.66337439 29.70916438 -20.94461402 30.70154843 -25.24755859 32.21948242 Z " fill="#77E244" transform="translate(273.5078125,26.62890625)"/>
<path d="M0 0 C1.07390991 -0.00708481 2.14781982 -0.01416962 3.25427246 -0.02146912 C4.43252594 -0.0189917 5.61077942 -0.01651428 6.82473755 -0.01396179 C8.68603302 -0.02162819 8.68603302 -0.02162819 10.58493042 -0.02944946 C13.99001875 -0.04098145 17.39486394 -0.04341677 20.79995489 -0.04088616 C23.64285875 -0.03981701 26.48574011 -0.04469851 29.32863915 -0.04949158 C36.03666559 -0.06059128 42.74463605 -0.06102191 49.45266724 -0.05497742 C56.37083519 -0.04893933 63.28879967 -0.06124324 70.2069329 -0.08254749 C76.14758757 -0.10016837 82.08817751 -0.106164 88.02885735 -0.10290974 C91.57645263 -0.10109715 95.12390285 -0.10373035 98.67147446 -0.11762428 C102.62889322 -0.13254287 106.58605338 -0.12322816 110.54348755 -0.11161804 C111.71769257 -0.11926178 112.89189758 -0.12690552 114.10168457 -0.13478088 C115.72100891 -0.12425941 115.72100891 -0.12425941 117.37304688 -0.11352539 C118.30845747 -0.11369313 119.24386806 -0.11386087 120.20762444 -0.1140337 C123.37967792 0.34211269 125.23404709 1.38211342 127.81350708 3.26069641 C130.02018628 6.57071521 130.07268594 7.62367439 130.10403442 11.47895813 C130.11679413 12.54371368 130.12955383 13.60846924 130.1427002 14.70549011 C130.14492584 15.85550507 130.14715149 17.00552002 130.14944458 18.19038391 C130.15942978 19.96410873 130.15942978 19.96410873 130.1696167 21.77366638 C130.17974939 24.27697695 130.18443353 26.78031457 130.18411255 29.28364563 C130.18848197 33.1136887 130.22478712 36.94257635 130.26272583 40.77241516 C130.26859453 43.2034008 130.27256357 45.63439192 130.27444458 48.06538391 C130.28881561 49.2113504 130.30318665 50.35731689 130.31799316 51.53800964 C130.27231118 59.48959016 130.27231118 59.48959016 127.90969849 63.46040344 C124.68457016 66.23027256 122.88531222 66.38894168 118.70930481 66.40786743 C117.62835541 66.41502274 116.54740601 66.42217804 115.43370056 66.42955017 C114.24250107 66.43223907 113.05130157 66.43492798 111.82400513 66.43769836 C110.57353394 66.44426956 109.32306274 66.45084076 108.03469849 66.45761108 C104.59862795 66.4739675 101.16261904 66.48557365 97.72652411 66.49381661 C95.58000239 66.4989662 93.43348499 66.50504195 91.28696632 66.51132774 C84.5716537 66.5303808 77.85635208 66.54461161 71.14101762 66.55293971 C63.38807942 66.5627132 55.63542665 66.58903484 47.88258904 66.62944061 C41.89101025 66.65959604 35.89951331 66.67440803 29.9078601 66.67772073 C26.32887828 66.68007192 22.75020134 66.68904062 19.17130089 66.7141819 C15.17774856 66.74178258 11.18483424 66.73763333 7.19119263 66.73066711 C6.00606583 66.74347717 4.82093903 66.75628723 3.59989929 66.76948547 C-4.37614873 66.71864669 -4.37614873 66.71864669 -8.33509827 64.48132324 C-11.46939373 60.72194077 -12.43367083 58.20930694 -12.47702026 53.31196594 C-12.48977997 52.33059662 -12.50253967 51.34922729 -12.51568604 50.33811951 C-12.51791168 49.28389801 -12.52013733 48.22967651 -12.52243042 47.14350891 C-12.52908722 46.0535965 -12.53574402 44.96368408 -12.54260254 43.84074402 C-12.55272416 41.53592109 -12.55741971 39.23106889 -12.55709839 36.92622375 C-12.56146808 33.40571115 -12.59778494 29.88645571 -12.63571167 26.36616516 C-12.64158063 24.12528403 -12.64554949 21.88439694 -12.64743042 19.64350891 C-12.66180145 18.59333588 -12.67617249 17.54316284 -12.690979 16.46116638 C-12.65330523 10.41406401 -12.27617805 6.83326226 -8.18649292 2.26069641 C-4.87133176 0.05058897 -3.85774678 0.00847311 0 0 Z " fill="#FE4848" transform="translate(304.1864929199219,422.7393035888672)"/>
<path d="M0 0 C1.07253525 -0.0071553 2.1450705 -0.01431061 3.25010681 -0.02168274 C4.43195557 -0.02437164 5.61380432 -0.02706055 6.83146667 -0.02983093 C8.0721843 -0.03640213 9.31290192 -0.04297333 10.59121704 -0.04974365 C14.00042903 -0.06609983 17.4095789 -0.07770614 20.81881547 -0.08594918 C22.94858624 -0.09109885 25.07835265 -0.0971746 27.20812035 -0.10346031 C33.87110722 -0.1225133 40.534083 -0.13674411 47.19709188 -0.14507228 C54.88947054 -0.15484567 62.58156153 -0.18116707 70.27383882 -0.22157317 C76.21870888 -0.25172927 82.16349646 -0.26654066 88.10844153 -0.26985329 C91.6594787 -0.27220441 95.21020857 -0.28117218 98.76116371 -0.30631447 C102.72349389 -0.33391598 106.6854453 -0.32976555 110.64787292 -0.32279968 C112.41153702 -0.34201477 112.41153702 -0.34201477 114.21083069 -0.36161804 C122.12488962 -0.31078174 122.12488962 -0.31078174 126.07662964 1.92654419 C129.21835147 5.68319259 130.18092344 8.19674532 130.22428894 13.09590149 C130.23704865 14.07727081 130.24980835 15.05864014 130.26295471 16.06974792 C130.26518036 17.12396942 130.26740601 18.17819092 130.2696991 19.26435852 C130.2796843 20.89922714 130.2796843 20.89922714 130.28987122 22.56712341 C130.29999284 24.87194634 130.30468839 27.17679855 130.30436707 29.48164368 C130.30873675 33.00215628 130.34505361 36.52141172 130.38298035 40.04170227 C130.38884931 42.28258341 130.39281817 44.52347049 130.3946991 46.76435852 C130.40907013 47.81453156 130.42344116 48.86470459 130.43824768 49.94670105 C130.40057391 55.99380343 130.02344673 59.57460517 125.9337616 64.14717102 C122.61204342 66.3616498 121.57838407 66.40083061 117.70930481 66.41459656 C116.62698074 66.42312653 115.54465668 66.43165649 114.42953491 66.44044495 C113.24193069 66.43953857 112.05432648 66.4386322 110.83073425 66.43769836 C109.58011703 66.44441559 108.32949982 66.45113281 107.04098511 66.45805359 C103.60904417 66.47381518 100.1773452 66.48040971 96.74538469 66.48168516 C93.88011126 66.48358421 91.01486106 66.49094185 88.14959657 66.49802935 C81.38883753 66.5143179 74.62813175 66.51919791 67.86735535 66.51777649 C60.89460592 66.51657512 53.92216605 66.53767463 46.94949496 66.56926382 C40.96212992 66.59542195 34.97486602 66.60614398 28.98744428 66.60486567 C25.41184891 66.60435586 21.83652857 66.61004879 18.26099014 66.63122177 C14.27239659 66.6541955 10.28422696 66.64508598 6.295578 66.63301086 C4.52024437 66.64986938 4.52024437 66.64986938 2.70904541 66.66706848 C-5.2942976 66.60535699 -5.2942976 66.60535699 -9.27635193 64.24180603 C-12.02294603 61.02757303 -12.20225291 59.19726195 -12.2591095 55.04243469 C-12.27517242 53.97760361 -12.29123535 52.91277252 -12.30778503 51.81567383 C-12.35217034 46.94367556 -12.39329693 42.07181433 -12.41633606 37.19966125 C-12.43290361 34.62828018 -12.46020369 32.0569453 -12.49836731 29.48579407 C-12.55306394 25.78283235 -12.57499999 22.08095077 -12.5896759 18.37763977 C-12.61234528 17.22853622 -12.63501465 16.07943268 -12.65837097 14.89550781 C-12.63480471 6.01248563 -12.63480471 6.01248563 -9.65852356 2.94526672 C-6.06190392 0.45053103 -4.33090391 0.01978246 0 0 Z " fill="#FE4848" transform="translate(90.06623840332031,422.8528289794922)"/>
<path d="M0 0 C6.24960664 0.87041875 9.93176665 2.81997025 14.3125 7.4375 C17.6454908 12.49870825 17.14842277 18.12783956 17.14526367 23.98681641 C17.14862228 24.88361618 17.1519809 25.78041595 17.15544128 26.70439148 C17.16493838 29.67012929 17.16689473 32.63581042 17.16796875 35.6015625 C17.17118555 37.67882307 17.17454993 39.75608341 17.17805481 41.83334351 C17.18404536 46.19619266 17.18589512 50.55902202 17.18530273 54.921875 C17.18520188 60.46102999 17.19877383 66.00005455 17.21607494 71.53917885 C17.22730917 75.83770303 17.22921837 80.136197 17.22869301 84.43473434 C17.2298591 86.47327493 17.23420196 88.51181666 17.24202538 90.55034256 C17.27670792 100.53325802 17.14044781 110.42309363 16.1184082 120.36083984 C16.04187861 121.10795542 15.96534903 121.85507099 15.88650036 122.62482643 C12.59858592 151.08217709 -3.90290534 174.32503858 -25.9152832 191.83447266 C-35.15158755 198.99877832 -44.87604221 205.17638831 -55 211 C-55.75458496 211.43441406 -56.50916992 211.86882812 -57.28662109 212.31640625 C-61.76250441 214.87678348 -66.26868196 217.37373191 -70.80957031 219.81689453 C-72.2716746 220.60661336 -73.72939084 221.40451004 -75.18261719 222.21044922 C-77.27760091 223.37005359 -79.38592981 224.50065072 -81.5 225.625 C-82.41483154 226.13969849 -82.41483154 226.13969849 -83.34814453 226.66479492 C-88.48838726 229.32792095 -93.27594435 229.85294042 -99 229 C-102.3096983 227.92540463 -105.26343625 226.41502307 -108.3125 224.75 C-109.16424805 224.30325928 -110.01599609 223.85651855 -110.89355469 223.39624023 C-113.61075004 221.95698047 -116.30668845 220.48341985 -119 219 C-119.89315918 218.51354004 -120.78631836 218.02708008 -121.70654297 217.52587891 C-141.53079956 206.67837317 -159.34601325 194.3074942 -176 179 C-171.98794739 179 -170.0585809 180.98019697 -167 183.3125 C-158.41102058 189.62643244 -149.32263564 194.85387892 -140 200 C-138.45022461 200.8677002 -138.45022461 200.8677002 -136.86914062 201.75292969 C-133.57167752 203.58952857 -130.25768313 205.39234889 -126.9375 207.1875 C-125.90326904 207.7647583 -124.86903809 208.3420166 -123.8034668 208.93676758 C-117.43892466 212.31492996 -112.23469754 214.31843303 -105 213 C-102.28060635 212.14851284 -99.91320175 210.9624736 -97.4375 209.5625 C-96.76041992 209.20051514 -96.08333984 208.83853027 -95.38574219 208.46557617 C-93.96174933 207.70300344 -92.54199492 206.93246616 -91.12646484 206.15429688 C-89.06718876 205.03647169 -86.98906322 203.97189103 -84.89453125 202.921875 C-50.81328312 185.69372543 -18.45013842 161.98788066 -5 125 C-1.5799024 114.28704722 -0.86408698 103.59111443 -0.79467773 92.40966797 C-0.78477814 91.40358994 -0.77487854 90.3975119 -0.76467896 89.36094666 C-0.73336503 86.07138331 -0.70842697 82.78180559 -0.68359375 79.4921875 C-0.66299815 77.19719083 -0.64200103 74.90219774 -0.62062073 72.60720825 C-0.56566905 66.59365752 -0.51614212 60.58007409 -0.46777344 54.56646729 C-0.41736085 48.41928225 -0.36177834 42.27214415 -0.30664062 36.125 C-0.19938858 24.08337352 -0.09787167 12.04170612 0 0 Z " fill="#62D333" transform="translate(350,55)"/>
<path d="M0 0 C14.92178779 -0.8188786 14.92178779 -0.8188786 21 4 C26.47824242 9.14622773 30.61350706 13.74860001 31.18654823 21.53468895 C31.26784868 24.73455123 31.28158108 27.92873588 31.2746582 31.12963867 C31.27976913 32.3484523 31.28488007 33.56726593 31.29014587 34.82301331 C31.30164842 38.15862029 31.30411677 41.49397832 31.30158257 44.8295877 C31.3005084 47.62907189 31.30540886 50.42853353 31.310188 53.22801286 C31.32127788 59.85083772 31.32172691 66.4736059 31.31567383 73.09643555 C31.30966688 79.88090098 31.32186208 86.66515729 31.3432439 93.44958705 C31.36100954 99.30644538 31.36683704 105.16323814 31.36360615 111.02012235 C31.36181292 114.50328675 31.36422686 117.98630284 31.37832069 121.46944237 C31.60210609 182.08632205 2.37648097 219.11854189 -34.0703125 264.85546875 C-34.57119385 265.48654541 -35.0720752 266.11762207 -35.58813477 266.76782227 C-36.54657329 267.97511517 -37.50784892 269.18016309 -38.47241211 270.38256836 C-44.91390611 278.51080656 -45.14558595 285.78704698 -45.5625 295.875 C-45.62727539 297.33679688 -45.62727539 297.33679688 -45.69335938 298.828125 C-45.7988219 301.21860887 -45.89985429 303.60928748 -46 306 C-50.62 306 -55.24 306 -60 306 C-60.16303367 301.70677997 -60.28144021 297.41984009 -60.375 293.125 C-60.42527344 291.92101562 -60.47554688 290.71703125 -60.52734375 289.4765625 C-60.66608149 280.96731438 -59.22699098 275.72799556 -54 269 C-53.5659082 268.43410156 -53.13181641 267.86820312 -52.68457031 267.28515625 C-51.48132142 265.79771326 -50.20940791 264.36667627 -48.9375 262.9375 C-42.87443407 255.97585338 -37.29840143 248.68694948 -31.74755859 241.31396484 C-29.95250546 238.93711187 -28.14324873 236.57158355 -26.33203125 234.20703125 C1.5460043 197.66219256 15.51636229 167.18254086 15.43590808 120.75869489 C15.43277804 117.96277157 15.43894916 115.16689697 15.44494683 112.37098068 C15.45888883 105.77372616 15.45751313 99.17660148 15.44604492 92.5793457 C15.4345267 85.80406124 15.44872463 79.02917094 15.4754414 72.25393826 C15.49765725 66.39783329 15.50422397 60.54185158 15.49836498 54.68570751 C15.4950139 51.20463155 15.49728815 47.72380914 15.51461601 44.24276924 C15.53307793 40.36684993 15.51883759 36.49141132 15.50170898 32.61547852 C15.51137695 31.48124451 15.52104492 30.3470105 15.53100586 29.17840576 C15.46050321 21.53469888 14.58917479 13.91922433 9.2207098 8.05709171 C6.36580168 5.47364983 3.47766291 3.64731401 0 2 C0 1.34 0 0.68 0 0 Z " fill="#F4B25B" transform="translate(458,117)"/>
<path d="M0 0 C1.30630046 0.45788066 2.61276624 0.91528992 3.91938782 1.37225342 C6.65333705 2.32992874 9.385709 3.29193415 12.11694336 4.25732422 C15.58269197 5.48216588 19.05141801 6.6982863 22.52130413 7.91135025 C25.2206722 8.85575986 27.91873301 9.80385877 30.61640358 10.75310516 C32.5055262 11.4174637 34.39541372 12.07964598 36.2853241 12.74176025 C43.8383345 15.41494073 51.25267513 18.31938657 58.61328125 21.484375 C58.61328125 24.454375 58.61328125 27.424375 58.61328125 30.484375 C51.17222155 29.03859978 44.30181172 26.6953346 37.203125 24.0625 C34.8082914 23.19304938 32.41309799 22.32458929 30.01757812 21.45703125 C26.27253365 20.09506265 22.52947481 18.72847897 18.79370117 17.34130859 C15.16616281 15.99957394 11.52962044 14.68528667 7.890625 13.375 C6.77896469 12.95534973 5.66730438 12.53569946 4.5219574 12.10333252 C-2.06776015 9.75884914 -5.80144505 8.99209946 -12.38671875 11.484375 C-13.45494873 11.82033691 -14.52317871 12.15629883 -15.6237793 12.50244141 C-16.6631665 12.85999512 -17.70255371 13.21754883 -18.7734375 13.5859375 C-19.9493042 13.9895752 -21.1251709 14.39321289 -22.33666992 14.80908203 C-27.46729308 16.59402546 -32.59656091 18.38238514 -37.71875 20.19140625 C-40.01870826 21.00214766 -42.3205242 21.80765867 -44.625 22.60546875 C-58.21040656 27.32386028 -69.46686034 31.57476306 -77.1328125 44.50390625 C-81.16565983 54.08977079 -81.8256169 63.14928559 -81.75 73.4609375 C-81.74947975 74.88097127 -81.75000382 76.30100576 -81.75151062 77.72103882 C-81.75142156 80.67774395 -81.74112776 83.63417264 -81.72290039 86.59082031 C-81.70017378 90.35742517 -81.69968397 94.12362894 -81.70641804 97.89028358 C-81.70977778 100.81588226 -81.70309109 103.74139148 -81.6932888 106.66697311 C-81.68947415 108.0550731 -81.68827285 109.44318309 -81.68987465 110.83128738 C-81.69179901 120.79767263 -80.60560304 129.25254588 -77.44921875 138.734375 C-77.13082031 139.70890625 -76.81242187 140.6834375 -76.484375 141.6875 C-75.45437925 144.55733606 -75.45437925 144.55733606 -73.6953125 147.21875 C-73.04755859 148.34023438 -73.04755859 148.34023438 -72.38671875 149.484375 C-72.71671875 150.144375 -73.04671875 150.804375 -73.38671875 151.484375 C-86.89482194 137.67729971 -95.58622587 122.35134873 -95.50024414 102.6550293 C-95.50039017 101.77647781 -95.50053619 100.89792633 -95.50068665 99.99275208 C-95.49999174 97.09800724 -95.49221911 94.2033273 -95.484375 91.30859375 C-95.48250932 89.29791804 -95.48108612 87.28724188 -95.48008728 85.27656555 C-95.47627392 79.99118794 -95.4664537 74.70583792 -95.4553833 69.42047119 C-95.4451438 64.02445855 -95.44058422 58.62844144 -95.43554688 53.23242188 C-95.42483038 42.64972748 -95.40776812 32.06705354 -95.38671875 21.484375 C-87.18526427 17.95485549 -78.91455606 14.82529665 -70.46484375 11.9453125 C-68.68759918 11.33400986 -68.68759918 11.33400986 -66.87445068 10.71035767 C-63.76161347 9.64023809 -60.64770403 8.57332675 -57.53314209 7.50823975 C-53.13950494 6.00494868 -48.74781688 4.495976 -44.35614014 2.98696899 C-42.02824287 2.1874404 -39.69985818 1.38932908 -37.37091064 0.59286499 C-36.30910583 0.22883575 -35.24730103 -0.13519348 -34.15332031 -0.51025391 C-33.15465942 -0.85018372 -32.15599854 -1.19011353 -31.1270752 -1.54034424 C-28.72320383 -2.39587145 -26.39801958 -3.35080839 -24.04980469 -4.34521484 C-15.81818196 -6.9753401 -7.80325106 -2.7624744 0 0 Z " fill="#E4E8F7" transform="translate(274.38671875,62.515625)"/>
<path d="M0 0 C10.58276386 0.25167096 15.91410083 4.07625644 23.81835938 10.95751953 C25.44847676 12.37645797 27.09001643 13.7811908 28.734375 15.18359375 C31.10469097 17.20713942 33.47019561 19.23609466 35.83203125 21.26953125 C39.18642957 24.15480858 42.55818811 27.01896944 45.9375 29.875 C46.46537109 30.32182129 46.99324219 30.76864258 47.53710938 31.22900391 C50.29462934 33.5614483 53.05892969 35.88531728 55.83203125 38.19921875 C75.57352394 54.69852615 90.53201008 75.00990752 93.375 101.3125 C94.51491491 116.72425139 93.78540554 131.53038708 88.33398438 146.09350586 C87.29083794 149.59500428 87.05779177 152.59401012 86.9609375 156.2421875 C86.92226562 157.53125 86.88359375 158.8203125 86.84375 160.1484375 C86.81230242 161.49478707 86.78105489 162.84114132 86.75 164.1875 C86.71176959 165.55731514 86.67271499 166.92710755 86.6328125 168.296875 C86.53877522 171.63519834 86.45580857 174.97383025 86.375 178.3125 C80.435 178.3125 74.495 178.3125 68.375 178.3125 C67.76083846 163.16318195 67.77939305 149.7839832 72.96484375 135.421875 C79.72621127 116.6158789 75.33685849 92.94078831 67.375 75.3125 C59.61829351 59.05944998 48.33169878 46.90285903 34.3515625 35.71875 C31.01245643 33.01942016 27.75251327 30.2399406 24.5 27.4375 C23.31254806 26.41661077 22.12504793 25.39577758 20.9375 24.375 C20.34839844 23.86839844 19.75929687 23.36179687 19.15234375 22.83984375 C6.60096341 11.35841388 6.60096341 11.35841388 -7.625 2.3125 C-4.98257723 -0.32992277 -3.68087947 0.01397802 0 0 Z " fill="#F4B25B" transform="translate(111.625,244.6875)"/>
<path d="M0 0 C5.7109375 0.6953125 5.7109375 0.6953125 8.3125 3.4375 C10.5898519 6.89570104 11.13042437 8.6256157 11.17700195 12.72167969 C11.19625481 14.19396027 11.19625481 14.19396027 11.21589661 15.69598389 C11.22328354 16.76052795 11.23067047 17.82507202 11.23828125 18.921875 C11.246353 20.01461731 11.25442474 21.10735962 11.26274109 22.23321533 C11.27659019 24.54999196 11.28730864 26.86678906 11.29516602 29.18359375 C11.31236269 32.7217496 11.35624077 36.25896736 11.40039062 39.796875 C11.41051878 42.04686812 11.4190345 44.2968692 11.42578125 46.546875 C11.44328934 47.60332214 11.46079742 48.65976929 11.47883606 49.74822998 C11.46097504 55.81753331 11.11300821 59.4143978 7 64 C3.67828183 66.21447878 2.64462247 66.25365959 -1.22445679 66.26742554 C-2.30678085 66.27595551 -3.38910492 66.28448547 -4.50422668 66.29327393 C-5.6918309 66.29236755 -6.87943512 66.29146118 -8.10302734 66.29052734 C-9.35364456 66.29724457 -10.60426178 66.30396179 -11.89277649 66.31088257 C-15.32471743 66.32664415 -18.75641639 66.33323869 -22.1883769 66.33451414 C-25.05365033 66.33641319 -27.91890054 66.34377083 -30.78416502 66.35085833 C-37.54492407 66.36714688 -44.30562984 66.37202689 -51.06640625 66.37060547 C-58.03915568 66.3694041 -65.01159555 66.3905036 -71.98426664 66.4220928 C-77.97163167 66.44825093 -83.95889558 66.45897296 -89.94631732 66.45769465 C-93.52191269 66.45718484 -97.09723302 66.46287777 -100.67277145 66.48405075 C-104.661365 66.50702448 -108.64953463 66.49791496 -112.63818359 66.48583984 C-114.41351723 66.50269836 -114.41351723 66.50269836 -116.22471619 66.51989746 C-120.78997282 66.48469607 -124.08532802 66.45386214 -128.21011353 64.40713501 C-130.51604937 61.30598922 -130.78004371 58.81257577 -131 55 C-129.84092133 54.99857498 -128.68184265 54.99714996 -127.48764038 54.99568176 C-116.51356768 54.97894337 -105.53986254 54.93596177 -94.56598473 54.86790943 C-88.92544716 54.8337573 -83.28517707 54.80854781 -77.64453125 54.80444336 C-72.19128128 54.80013511 -66.73863351 54.77146401 -61.28557205 54.72656822 C-59.21502833 54.7136736 -57.14441225 54.7092567 -55.07383347 54.71384621 C-39.38567367 54.7404969 -25.03645129 53.7521945 -13.20703125 42.2578125 C-4.28485017 32.78394006 -0.84197648 21.8557097 -0.375 9.0625 C-0.31699219 7.75055664 -0.31699219 7.75055664 -0.2578125 6.41210938 C-0.1643893 4.27505369 -0.08114602 2.13755706 0 0 Z " fill="#F91C1C" transform="translate(209,423)"/>
<path d="M0 0 C6.49250729 0.49000055 6.49250729 0.49000055 8.70521545 2.71363831 C10.26180838 5.46230754 10.38586729 7.18360351 10.40405273 10.33178711 C10.42307899 11.92880714 10.42307899 11.92880714 10.44248962 13.55809021 C10.43955399 14.70294388 10.43661835 15.84779755 10.43359375 17.02734375 C10.4388356 18.20841202 10.44407745 19.38948029 10.44947815 20.6063385 C10.4559007 23.10368056 10.45455838 25.60105286 10.44604492 28.09838867 C10.43753972 31.91965628 10.46628833 35.73942715 10.49804688 39.56054688 C10.49965907 41.98697872 10.49908101 44.41341321 10.49609375 46.83984375 C10.50732773 47.98267319 10.51856171 49.12550262 10.53013611 50.30296326 C10.4605193 58.2274342 10.4605193 58.2274342 8.09399414 62.19750977 C4.87143548 64.9714576 3.07199569 65.1282444 -1.10420227 65.14717102 C-2.18515167 65.15432632 -3.26610107 65.16148163 -4.37980652 65.16885376 C-5.57100601 65.17154266 -6.76220551 65.17423157 -7.98950195 65.17700195 C-9.23997314 65.18357315 -10.49044434 65.19014435 -11.77880859 65.19691467 C-15.21487913 65.21327109 -18.65088804 65.22487724 -22.08698297 65.2331202 C-24.23350469 65.23826979 -26.38002209 65.24434554 -28.52654076 65.25063133 C-35.24185338 65.26968439 -41.957155 65.2839152 -48.67248946 65.2922433 C-56.42542766 65.30201679 -64.17808043 65.32833843 -71.93091804 65.36874419 C-77.92249683 65.39889963 -83.91399377 65.41371162 -89.90564698 65.41702431 C-93.4846288 65.4193755 -97.06330574 65.42834421 -100.64220619 65.45348549 C-104.63575852 65.48108617 -108.62867284 65.47693692 -112.62231445 65.4699707 C-113.80744125 65.48278076 -114.99256805 65.49559082 -116.21360779 65.50878906 C-124.21770485 65.4577715 -124.21770485 65.4577715 -128.18766785 63.13468933 C-130.1610661 60.81028528 -131.22401606 58.94873896 -132 56 C-131.67 55.34 -131.34 54.68 -131 54 C-129.86962311 53.99191315 -128.73924622 53.98382629 -127.57461548 53.97549438 C-116.89371147 53.8978277 -106.21293164 53.81003735 -95.53219032 53.71247292 C-90.0418307 53.66264225 -84.55148909 53.61631145 -79.06103516 53.578125 C-73.75709918 53.54110459 -68.45331895 53.49470008 -63.14951706 53.44193649 C-61.13148114 53.42348126 -59.11341195 53.40834099 -57.09532547 53.39665604 C-54.25691208 53.37964086 -51.41884852 53.3505707 -48.58056641 53.31884766 C-47.34409363 53.31560738 -47.34409363 53.31560738 -46.0826416 53.31230164 C-33.84813273 53.13894385 -21.89125299 49.89125299 -13 41 C-4.73089667 30.74404118 -1.14559591 20.67699711 -0.4375 7.6875 C-0.37272461 6.57665039 -0.37272461 6.57665039 -0.30664062 5.44335938 C-0.20129568 3.62908536 -0.10021684 1.8145645 0 0 Z " fill="#F91C1C" transform="translate(424,424)"/>
<path d="M0 0 C2 3 2 3 1.83268738 5.44647217 C0.88634114 8.34854746 -0.18503153 9.69707705 -2.32299805 11.85644531 C-3.37495613 12.9321579 -3.37495613 12.9321579 -4.44816589 14.02960205 C-5.21163834 14.78811462 -5.97511078 15.5466272 -6.76171875 16.328125 C-7.54513138 17.11773621 -8.32854401 17.90734741 -9.13569641 18.72088623 C-10.79435189 20.38664157 -12.45816427 22.04727556 -14.12670898 23.703125 C-16.67632812 26.23888883 -19.20107054 28.7976865 -21.72460938 31.359375 C-23.33969386 32.97541076 -24.95618479 34.59004238 -26.57421875 36.203125 C-27.32757004 36.9697345 -28.08092133 37.73634399 -28.85710144 38.52618408 C-34.16366282 43.73999569 -34.16366282 43.73999569 -38.40039062 45.05712891 C-41.61748343 44.98643021 -42.5358245 44.3570348 -44.8125 42.125 C-45.48023438 41.47789062 -46.14796875 40.83078125 -46.8359375 40.1640625 C-47.55007812 39.44992188 -48.26421875 38.73578125 -49 38 C-49.81726563 37.26523438 -50.63453125 36.53046875 -51.4765625 35.7734375 C-58.4408339 29.33977725 -58.4408339 29.33977725 -59.25 25.125 C-59 22 -59 22 -57.9375 20 C-54.96990699 18.46833909 -53.17926559 19.13082046 -50 20 C-47.2265625 22.28515625 -47.2265625 22.28515625 -44.625 25.0625 C-43.31402344 26.44115234 -43.31402344 26.44115234 -41.9765625 27.84765625 C-41.32429688 28.55792969 -40.67203125 29.26820313 -40 30 C-37.19923613 28.72370463 -35.16415401 27.40867105 -33.00732422 25.21850586 C-32.45350067 24.66130356 -31.89967712 24.10410126 -31.32907104 23.53001404 C-30.74352448 22.93100784 -30.15797791 22.33200165 -29.5546875 21.71484375 C-28.94360138 21.09855606 -28.33251526 20.48226837 -27.70291138 19.8473053 C-25.75545618 17.88206676 -23.81483091 15.91026236 -21.875 13.9375 C-19.92716399 11.96205725 -17.97789254 9.98808649 -16.02566528 8.01698303 C-14.81202071 6.79106939 -13.60105915 5.56249271 -12.39303589 4.33103943 C-7.88509443 -0.23067362 -6.37639691 -1.59409923 0 0 Z " fill="#FF4E4E" transform="translate(286,123)"/>
<path d="M0 0 C2.65350124 7.11862984 3.4996875 14.57861056 1.01953125 21.890625 C-2.51116483 29.14756341 -7.00544971 34.27610068 -13.4375 39.125 C-18.30838319 42.87030732 -23.08056296 46.69361727 -27.75 50.6875 C-35.73389612 57.4843884 -35.73389612 57.4843884 -39.625 60.6875 C-40.78902344 61.65236328 -40.78902344 61.65236328 -41.9765625 62.63671875 C-44 64 -44 64 -47 64 C-45.38405168 61.95880212 -43.7143618 59.95927063 -42 58 C-41.34 58 -40.68 58 -40 58 C-39.69050415 57.19828369 -39.69050415 57.19828369 -39.37475586 56.38037109 C-37.44421092 53.03765875 -34.75784423 50.57280088 -32.00390625 47.9140625 C-30.7934995 46.72408067 -29.58321691 45.53397256 -28.37304688 44.34375 C-26.46859284 42.48272959 -24.56173578 40.62425736 -22.65209961 38.76855469 C-20.80449326 36.96943756 -18.96636025 35.16103878 -17.12890625 33.3515625 C-16.56007217 32.80448639 -15.9912381 32.25741028 -15.40516663 31.6937561 C-11.09892178 27.44140786 -8.05926339 23.64145385 -7.91796875 17.34375 C-8.00691406 16.0753125 -8.09585938 14.806875 -8.1875 13.5 C-8.35576437 6.65500543 -8.35576437 6.65500543 -6.74609375 3.69140625 C-4.67640729 1.6117454 -3.04304832 0 0 0 Z " fill="#F4B35C" transform="translate(429,252)"/>
<path d="M0 0 C3.40950927 1.46121826 5.70613096 3.06384763 8 6 C8.23791515 9.75473367 7.93160449 13.32914525 7.65234375 17.078125 C8.37131251 25.18873887 14.3143678 30.73431669 19.9453125 36.16796875 C20.59700409 36.81067215 21.24869568 37.45337555 21.9201355 38.11555481 C23.98129108 40.1469565 26.05215444 42.16803347 28.125 44.1875 C30.20404108 46.21857804 32.28067345 48.25191059 34.35128784 50.2915802 C35.6338634 51.55452581 36.92133938 52.81252016 38.21438599 54.06474304 C41.36869091 57.16595517 43.93180259 60.03199022 46 64 C43.121582 62.6685435 40.80803749 61.16701678 38.3828125 59.12890625 C37.70001221 58.55970459 37.01721191 57.99050293 36.3137207 57.40405273 C35.59144287 56.79634033 34.86916504 56.18862793 34.125 55.5625 C28.03736363 50.49023395 21.90108569 45.50140444 15.64306641 40.64086914 C14.09062311 39.4333339 12.54520945 38.21677824 11 37 C10.46914795 36.59168945 9.9382959 36.18337891 9.39135742 35.76269531 C6.04758512 33.11332323 3.78793602 30.57765542 1.6875 26.875 C1.19636719 26.02679688 0.70523438 25.17859375 0.19921875 24.3046875 C-1.97749691 20.12142288 -2.16282931 16.79269467 -2.1875 12.125 C-2.20167969 10.91070312 -2.21585937 9.69640625 -2.23046875 8.4453125 C-2.01047255 5.15655579 -1.41715618 2.94634052 0 0 Z " fill="#F4B35C" transform="translate(83,252)"/>
<path d="M0 0 C0.72960937 0.23332031 1.45921875 0.46664063 2.2109375 0.70703125 C2.5409375 2.02703125 2.8709375 3.34703125 3.2109375 4.70703125 C-2.5103257 10.05474119 -8.26079732 15.38208168 -14.2265625 20.45703125 C-14.98839844 21.111875 -15.75023437 21.76671875 -16.53515625 22.44140625 C-18.7890625 23.70703125 -18.7890625 23.70703125 -21.57421875 23.41015625 C-22.30511719 23.178125 -23.03601563 22.94609375 -23.7890625 22.70703125 C-24.09375 20.5078125 -24.09375 20.5078125 -23.7890625 17.70703125 C-21.734375 15.3125 -21.734375 15.3125 -18.9140625 12.89453125 C-17.91375 12.03601563 -16.9134375 11.1775 -15.8828125 10.29296875 C-15.3671875 9.86338867 -14.8515625 9.43380859 -14.3203125 8.99121094 C-12.86151515 7.76779352 -11.43367507 6.50774181 -10.0078125 5.24609375 C-8.72390625 4.14394531 -8.72390625 4.14394531 -7.4140625 3.01953125 C-6.64320313 2.35566406 -5.87234375 1.69179688 -5.078125 1.0078125 C-2.7890625 -0.29296875 -2.7890625 -0.29296875 0 0 Z " fill="#FFFCF9" transform="translate(370.7890625,280.29296875)"/>
<path d="M0 0 C3.88265681 0.72799815 5.46228253 1.50231129 8 4.5625 C8.71534153 7.70654141 8.71534153 10.41845859 8 13.5625 C5.46228253 16.62268871 3.88265681 17.39700185 0 18.125 C-4.13607554 17.34948584 -5.54999553 15.94927089 -8 12.5625 C-8.625 9.0625 -8.625 9.0625 -8 5.5625 C-5.54999553 2.17572911 -4.13607554 0.77551416 0 0 Z " fill="#CAE4EF" transform="translate(192,448.4375)"/>
<path d="M0 0 C2.9375 2.0625 2.9375 2.0625 5 5 C5.62601538 8.96476406 5.65946039 10.99762021 3.4375 14.375 C0.14507816 16.5699479 -2.04169355 17.06944397 -6 17 C-8.98170781 15.03334166 -10.64103498 13.59330089 -11.4453125 10.0234375 C-11.63539698 6.63993376 -11.23198885 4.37118216 -9.4375 1.5 C-6.00863886 -0.61006839 -3.95779649 -0.62491523 0 0 Z " fill="#CAE4EF" transform="translate(323,449)"/>
<path d="M0 0 C2.5 0.125 2.5 0.125 3.5 1.125 C3.71809756 5.38248426 3.68579161 9.64545724 3.68530273 13.90795898 C3.68748743 16.05017 3.70563512 18.19186471 3.72460938 20.33398438 C3.72754359 21.6901024 3.7295282 23.04622288 3.73046875 24.40234375 C3.73457764 25.64234131 3.73868652 26.88233887 3.74291992 28.15991211 C3.5 31.125 3.5 31.125 1.5 33.125 C-2.03571429 32.58928571 -2.03571429 32.58928571 -3.5 31.125 C-3.60012401 28.91849344 -3.6308118 26.70877614 -3.6328125 24.5 C-3.63376923 23.83790527 -3.63472595 23.17581055 -3.63571167 22.49365234 C-3.63639326 21.09147039 -3.63454042 19.6892853 -3.63037109 18.28710938 C-3.62502246 16.13404287 -3.6303167 13.98118498 -3.63671875 11.828125 C-3.63605796 10.46874954 -3.63477679 9.1093742 -3.6328125 7.75 C-3.63168457 6.50476563 -3.63055664 5.25953125 -3.62939453 3.9765625 C-3.4567941 0.1728397 -3.4567941 0.1728397 0 0 Z " fill="#FFFEFD" transform="translate(35.5,181.875)"/>
<path d="M0 0 C0.680625 0.12375 1.36125 0.2475 2.0625 0.375 C2.3925 2.025 2.7225 3.675 3.0625 5.375 C0.85374879 7.57102066 -1.34744275 9.63580867 -3.9375 11.375 C-6.875 11.25 -6.875 11.25 -8.9375 10.375 C-9.2675 9.055 -9.5975 7.735 -9.9375 6.375 C-3.86310175 0.49316193 -3.86310175 0.49316193 0 0 Z " fill="#FFFCF8" transform="translate(389.9375,263.625)"/>
<path d="M0 0 C3.53571429 0.53571429 3.53571429 0.53571429 5 2 C5.09851171 3.83115883 5.12972629 5.66619933 5.125 7.5 C5.12757812 8.5003125 5.13015625 9.500625 5.1328125 10.53125 C5 13 5 13 4 14 C1.5 14.125 1.5 14.125 -1 14 C-2.73849628 12.26150372 -2.17216296 9.9213363 -2.1875 7.5625 C-2.20167969 6.57378906 -2.21585938 5.58507812 -2.23046875 4.56640625 C-2 2 -2 2 0 0 Z " fill="#FFFDFB" transform="translate(34,156)"/>
</svg>
