<?xml version="1.0" encoding="UTF-8"?>
<svg version="1.1" xmlns="http://www.w3.org/2000/svg" width="512" height="512">
<path d="M0 0 C0.99868909 -0.00297112 1.99737819 -0.00594224 3.02633059 -0.0090034 C6.35908455 -0.01764635 9.69180239 -0.01919493 13.02456665 -0.02069092 C15.42015662 -0.02532233 17.81574585 -0.03034742 20.21133423 -0.03573608 C26.71186048 -0.04883371 33.21237985 -0.05533771 39.71291685 -0.05974674 C43.78023756 -0.06251761 47.84755591 -0.06675656 51.91487503 -0.07125092 C63.19913521 -0.08343966 74.48339352 -0.09373856 85.76766014 -0.09712601 C86.48888342 -0.09734557 87.2101067 -0.09756514 87.95318524 -0.09779136 C88.67603937 -0.09800964 89.39889351 -0.09822791 90.14365232 -0.09845281 C91.60818887 -0.09889626 93.07272542 -0.09934282 94.53726196 -0.09979248 C95.2637076 -0.10001391 95.99015323 -0.10023534 96.73861237 -0.10046348 C108.48858398 -0.10440477 120.23849332 -0.12184006 131.98844092 -0.145152 C144.08217627 -0.16895013 156.17588049 -0.18133175 168.26963961 -0.18249393 C175.04751456 -0.18340615 181.82530843 -0.18904286 188.60316086 -0.20731354 C194.98736375 -0.22388814 201.37141365 -0.2259044 207.75563049 -0.21717453 C210.08628883 -0.21640908 212.41695571 -0.22068117 214.74759293 -0.23063278 C258.07962913 -0.40465983 296.27158717 14.14096113 327.37026978 44.66778564 C335.82133285 53.25263113 342.72223089 62.77794547 348.81997681 73.14044189 C349.16657349 73.72519287 349.51317017 74.30994385 349.87026978 74.91241455 C362.01010239 95.68527045 368.98307225 119.22610484 368.9604187 143.32046509 C368.96487538 144.81849873 368.96487538 144.81849873 368.9694221 146.34679568 C368.97806505 149.67954963 368.97961363 153.01226748 368.98110962 156.34503174 C368.98574103 158.7406217 368.99076612 161.13621093 368.99615479 163.53179932 C369.00925242 170.03232557 369.01575642 176.53284494 369.02016544 183.03338194 C369.02293631 187.10070264 369.02717527 191.168021 369.03166962 195.23534012 C369.04385836 206.5196003 369.05415726 217.80385861 369.05754471 229.08812523 C369.05776427 229.80934851 369.05798384 230.53057179 369.05821006 231.27365033 C369.05842834 231.99650446 369.05864662 232.7193586 369.05887151 233.46411741 C369.05931496 234.92865396 369.05976152 236.3931905 369.06021118 237.85772705 C369.06043261 238.58417268 369.06065404 239.31061832 369.06088218 240.05907746 C369.06482347 251.80904907 369.08225876 263.55895841 369.1055707 275.308906 C369.12936883 287.40264135 369.14175045 299.49634558 369.14291263 311.5901047 C369.14382485 318.36797965 369.14946156 325.14577352 369.16773224 331.92362595 C369.18430684 338.30782883 369.1863231 344.69187874 369.17759323 351.07609558 C369.17682778 353.40675392 369.18109987 355.7374208 369.19105148 358.06805801 C369.36507853 401.40009422 354.81945758 439.59205226 324.29263306 470.69073486 C315.70778757 479.14179794 306.18247323 486.04269597 295.81997681 492.14044189 C295.23522583 492.48703857 294.65047485 492.83363525 294.04800415 493.19073486 C273.27514825 505.33056748 249.73431386 512.30353734 225.63995361 512.28088379 C224.64126452 512.28385491 223.64257542 512.28682603 222.61362302 512.28988719 C219.28086907 512.29853014 215.94815122 512.30007872 212.61538696 512.30157471 C210.219797 512.30620611 207.82420777 512.31123121 205.42861938 512.31661987 C198.92809313 512.3297175 192.42757376 512.3362215 185.92703676 512.34063053 C181.85971606 512.3434014 177.7923977 512.34764035 173.72507858 512.3521347 C162.4408184 512.36432345 151.15656009 512.37462235 139.87229347 512.3780098 C138.79045855 512.37833915 138.79045855 512.37833915 137.68676838 512.37867515 C136.96391424 512.37889343 136.2410601 512.3791117 135.49630129 512.3793366 C134.03176474 512.37978005 132.5672282 512.38022661 131.10269165 512.38067627 C130.37624602 512.3808977 129.64980038 512.38111913 128.90134124 512.38134727 C117.15136963 512.38528855 105.40146029 512.40272385 93.6515127 512.42603579 C81.55777735 512.44983392 69.46407312 512.46221554 57.370314 512.46337771 C50.59243905 512.46428994 43.81464518 512.46992664 37.03679276 512.48819733 C30.65258987 512.50477193 24.26853996 512.50678819 17.88432312 512.49805832 C15.55366478 512.49729287 13.2229979 512.50156496 10.89236069 512.51151657 C-32.43967552 512.68554362 -70.63163355 498.13992266 -101.73031616 467.61309814 C-110.18137924 459.02825266 -117.08227727 449.50293832 -123.18002319 439.14044189 C-123.52661987 438.55569092 -123.87321655 437.97093994 -124.23031616 437.36846924 C-139.15366328 411.83265263 -143.96888288 384.22270078 -143.82699585 354.93341064 C-143.83379502 352.5269607 -143.84271086 350.12051597 -143.85354614 347.71408081 C-143.87607264 341.2594098 -143.86761464 334.80514453 -143.85165071 328.35046768 C-143.84267249 324.30057544 -143.84447118 320.25073325 -143.84910202 316.20083618 C-143.84986819 315.52315191 -143.85063435 314.84546765 -143.85142373 314.14724749 C-143.85302277 312.7694531 -143.85464384 311.39165874 -143.85628669 310.0138644 C-143.87045789 297.17115175 -143.8542884 284.32861914 -143.82728486 271.48593605 C-143.80495393 260.5272569 -143.80883651 249.56884283 -143.83187866 238.61016846 C-143.85879081 225.80542442 -143.86908541 213.00083715 -143.85381734 200.19606876 C-143.85222502 198.82406174 -143.85065316 197.45205468 -143.84910202 196.08004761 C-143.84833064 195.40544076 -143.84755927 194.73083391 -143.84676451 194.03578442 C-143.84249339 189.33985864 -143.8498857 184.64406472 -143.86149979 179.94815063 C-143.87611257 173.59803788 -143.86562045 167.2484178 -143.8370285 160.89835739 C-143.83050645 158.58998806 -143.83215941 156.2815761 -143.84334183 153.97322464 C-144.02984188 111.50758545 -129.37532516 73.193066 -99.75082397 42.66778564 C-73.70742027 16.77431011 -36.88675524 -0.03468097 0 0 Z " fill="#2492FF" transform="translate(143.18002319335938,-0.14044189453125)"/>
<path d="M0 0 C1.2150119 -0.00953201 2.4300238 -0.01906403 3.68185425 -0.02888489 C5.6320195 -0.02751778 5.6320195 -0.02751778 7.62158203 -0.02612305 C8.98389821 -0.03001582 10.34621318 -0.03435168 11.70852661 -0.03910828 C14.55800314 -0.04654947 17.40735573 -0.04629484 20.25683594 -0.04101562 C23.89036502 -0.03522781 27.52338322 -0.05214499 31.15682793 -0.0753603 C33.96915605 -0.09016534 36.7813631 -0.09096013 39.5937233 -0.08785057 C41.57885232 -0.08860677 43.56396269 -0.1024255 45.54904175 -0.11653137 C53.23348477 -0.07734022 59.4439306 0.28214188 65.92626953 4.7824707 C66.70744141 5.58297852 66.70744141 5.58297852 67.50439453 6.3996582 C68.03548828 6.91786133 68.56658203 7.43606445 69.11376953 7.9699707 C76.03815065 17.69707751 75.22913764 27.3381558 75.00439453 38.8371582 C74.984302 40.6268518 74.96605609 42.41656712 74.94970703 44.20629883 C74.90592174 48.56296099 74.83704677 52.91856715 74.75439453 57.2746582 C75.58970703 57.52445435 75.58970703 57.52445435 76.44189453 57.77929688 C81.94216538 59.50568045 86.78149839 61.68960418 91.75439453 64.5871582 C92.40150391 64.95260742 93.04861328 65.31805664 93.71533203 65.69458008 C98.88693743 68.65343337 103.82913264 71.92488156 108.75439453 75.2746582 C109.46982422 74.87150391 110.18525391 74.46834961 110.92236328 74.05297852 C113.6127543 72.53811087 116.3041073 71.02496988 118.99609375 69.51293945 C120.71964532 68.54418956 122.44210963 67.57350605 124.16455078 66.6027832 C127.35350037 64.81249571 130.55140457 63.03967826 133.75439453 61.2746582 C134.91950562 60.61832397 134.91950562 60.61832397 136.1081543 59.94873047 C142.64830072 56.4220186 148.49805872 56.32709545 155.75439453 57.2746582 C167.12443009 61.00416189 172.35518225 71.57555359 177.87939453 81.3996582 C178.86459876 83.13130731 179.84980617 84.86295464 180.83535767 86.59440613 C181.83104677 88.34628568 182.82328661 90.10008229 183.81494141 91.85424805 C185.65097075 95.09226053 187.50324301 98.32020399 189.36376953 101.54418945 C190.45231136 103.43351228 191.54085304 105.32283519 192.62939453 107.2121582 C193.13486816 108.08694824 193.6403418 108.96173828 194.16113281 109.86303711 C194.62245605 110.66789551 195.0837793 111.47275391 195.55908203 112.30200195 C196.16212158 113.34988892 196.16212158 113.34988892 196.77734375 114.41894531 C199.46436447 119.52240471 199.46607029 124.65876136 198.75439453 130.2746582 C194.41330017 144.08723116 183.08168369 149.27040021 171.25439453 156.2121582 C170.26697266 156.80061523 169.27955078 157.38907227 168.26220703 157.99536133 C167.32119141 158.55030273 166.38017578 159.10524414 165.41064453 159.67700195 C164.13930664 160.42711548 164.13930664 160.42711548 162.84228516 161.19238281 C160.75439453 162.2746582 160.75439453 162.2746582 158.75439453 162.2746582 C158.91665527 162.98404541 159.07891602 163.69343262 159.24609375 164.42431641 C159.7604916 167.30884808 159.88375845 169.9525264 159.88720703 172.88012695 C159.88849609 173.94682617 159.88978516 175.01352539 159.89111328 176.11254883 C159.88724609 177.21791992 159.88337891 178.32329102 159.87939453 179.4621582 C159.88326172 180.54819336 159.88712891 181.63422852 159.89111328 182.75317383 C159.88322306 189.32178179 159.55896829 195.75467836 158.75439453 202.2746582 C159.46466797 202.54036621 160.17494141 202.80607422 160.90673828 203.07983398 C166.11754868 205.26619425 170.88589333 208.29711156 175.75439453 211.1496582 C176.83462891 211.77485352 177.91486328 212.40004883 179.02783203 213.04418945 C180.07197266 213.65391602 181.11611328 214.26364258 182.19189453 214.8918457 C183.13935547 215.44469238 184.08681641 215.99753906 185.06298828 216.56713867 C189.37001133 219.29966037 192.88422244 221.92199809 195.50439453 226.3371582 C196.11541016 227.34456055 196.11541016 227.34456055 196.73876953 228.37231445 C198.45720046 231.59106776 198.93595598 234.30663403 199.00439453 237.8996582 C199.03017578 238.69629883 199.05595703 239.49293945 199.08251953 240.3137207 C198.11898175 249.00850207 193.81801314 256.09084849 189.37939453 263.4621582 C188.12010926 265.57794204 186.86099886 267.69382996 185.60205078 269.80981445 C184.96283691 270.8786084 184.32362305 271.94740234 183.66503906 273.04858398 C181.80576339 276.1879232 179.99022766 279.34838907 178.18798828 282.52075195 C177.62063965 283.50986572 177.05329102 284.49897949 176.46875 285.51806641 C175.39710463 287.3875063 174.33436299 289.2620893 173.28222656 291.14257812 C168.95239156 298.61887321 163.9644106 304.07469131 155.75439453 307.2746582 C146.58941115 308.70599338 139.55594531 307.14050683 131.70117188 302.43188477 C129.26704216 300.9849604 126.80253431 299.59604718 124.33642578 298.2043457 C119.12530706 295.2570844 113.93483236 292.27546831 108.75439453 289.2746582 C108.05378906 289.73001953 107.35318359 290.18538086 106.63134766 290.65454102 C101.36753528 294.06307526 96.0424949 297.35948372 90.62939453 300.5246582 C89.53369141 301.16918945 88.43798828 301.8137207 87.30908203 302.4777832 C83.22817411 304.54065973 79.11988061 305.94909076 74.75439453 307.2746582 C74.79367065 308.92280518 74.79367065 308.92280518 74.83374023 310.60424805 C74.92497819 314.7228519 74.98190792 318.8413685 75.02905273 322.96069336 C75.0540308 324.7355863 75.08802579 326.51037813 75.1315918 328.28491211 C75.62306609 348.83431946 75.62306609 348.83431946 67.82202148 357.39526367 C60.88590808 364.32858213 52.82545712 365.60813218 43.30067444 365.71714783 C41.54719948 365.71274437 41.54719948 365.71274437 39.75830078 365.70825195 C38.52957748 365.7134938 37.30085419 365.71873566 36.03489685 365.72413635 C33.44718173 365.73053419 30.85943744 365.72924874 28.27172852 365.72070312 C24.33247663 365.71219187 20.39467545 365.7409916 16.45556641 365.77270508 C13.9314783 365.77431738 11.40738764 365.77373901 8.88330078 365.77075195 C7.71634171 365.78198593 6.54938263 365.79321991 5.34706116 365.80479431 C-3.64741023 365.72887354 -11.21220195 364.19441426 -18.12060547 358.1496582 C-26.66646955 348.52086783 -25.73962953 337.23115132 -25.49560547 325.1496582 C-25.47550628 323.41269967 -25.45726157 321.67571863 -25.44091797 319.9387207 C-25.39720057 315.71680334 -25.32836407 311.49598336 -25.24560547 307.2746582 C-25.80175537 307.10812744 -26.35790527 306.94159668 -26.9309082 306.77001953 C-32.44264293 305.03875832 -37.31656522 302.85432076 -42.30810547 299.9621582 C-43.00202393 299.56988037 -43.69594238 299.17760254 -44.41088867 298.7734375 C-48.8110521 296.24361508 -52.82775052 293.53172232 -56.56982422 290.07543945 C-58.30986624 289.00596785 -58.30986624 289.00596785 -60.50488281 290.02539062 C-63.38983016 291.34039825 -66.05264358 292.83384068 -68.77294922 294.4621582 C-69.81257813 295.07833008 -70.85220703 295.69450195 -71.92333984 296.3293457 C-74.09363716 297.62450216 -76.26291209 298.92137341 -78.43115234 300.2199707 C-79.47207031 300.83614258 -80.51298828 301.45231445 -81.58544922 302.0871582 C-82.52767334 302.65047852 -83.46989746 303.21379883 -84.44067383 303.79418945 C-91.97484308 307.77079337 -100.31185825 308.81665172 -108.62060547 306.6574707 C-118.83819005 302.14736501 -123.92913816 291.10750855 -129.05810547 281.8371582 C-130.11101295 279.95727722 -131.16696243 278.07912686 -132.2230835 276.2010498 C-132.91971451 274.96168568 -133.61524158 273.72170035 -134.30963135 272.4810791 C-137.53454417 266.7272303 -140.88808934 261.05364685 -144.3269043 255.42529297 C-148.70717301 248.12614326 -150.22891856 241.71676081 -149.24560547 233.2746582 C-146.83792744 225.92751701 -142.22504003 220.52080721 -135.62060547 216.5871582 C-134.49009766 215.91297852 -133.35958984 215.23879883 -132.19482422 214.54418945 C-124.93966505 210.34442754 -117.59184274 206.3122848 -110.24560547 202.2746582 C-110.24560547 189.0746582 -110.24560547 175.8746582 -110.24560547 162.2746582 C-118.10912212 157.93083089 -118.10912212 157.93083089 -125.97998047 153.6003418 C-137.14286436 147.39171061 -144.92457676 142.80096164 -149.24560547 130.2746582 C-151.3925345 120.71603788 -146.87691717 113.28800081 -142.24560547 105.2746582 C-141.730625 104.37424805 -141.21564453 103.47383789 -140.68505859 102.54614258 C-137.14005434 96.36167353 -133.53353412 90.21579759 -129.89794922 84.08422852 C-128.44674409 81.61666518 -127.0255348 79.13592766 -125.62060547 76.6418457 C-120.80626373 68.17258404 -115.97890104 60.40935192 -106.24560547 57.2746582 C-103.22998047 56.9387207 -103.22998047 56.9387207 -99.99560547 56.8996582 C-98.93857422 56.87129883 -97.88154297 56.84293945 -96.79248047 56.8137207 C-88.90258077 57.83906009 -81.90314341 62.42323021 -75.05810547 66.2746582 C-74.29046875 66.70004883 -73.52283203 67.12543945 -72.73193359 67.5637207 C-69.33100408 69.46381157 -66.10814208 71.35113943 -63.00732422 73.7121582 C-60.37696432 75.60324726 -60.37696432 75.60324726 -57.64404297 74.7199707 C-55.28085186 73.29589789 -53.07327597 71.81132191 -50.87060547 70.1496582 C-46.54824027 67.05575469 -42.10738908 64.41201431 -37.43310547 61.8996582 C-36.79904785 61.55402832 -36.16499023 61.20839844 -35.51171875 60.85229492 C-32.08192357 59.04089187 -29.04847939 57.93980583 -25.24560547 57.2746582 C-25.27178955 56.14036377 -25.29797363 55.00606934 -25.32495117 53.83740234 C-25.41604767 49.59395386 -25.47306875 45.35059023 -25.52026367 41.10644531 C-25.54527338 39.2762189 -25.5792928 37.44609101 -25.62280273 35.61621094 C-26.07787481 15.97315846 -26.07787481 15.97315846 -20.24560547 9.2746582 C-19.57658203 8.50250977 -18.90755859 7.73036133 -18.21826172 6.93481445 C-17.58791016 6.40758789 -16.95755859 5.88036133 -16.30810547 5.3371582 C-15.36644531 4.51924805 -15.36644531 4.51924805 -14.40576172 3.68481445 C-9.86027031 0.71750451 -5.34563765 0.02314863 0 0 Z " fill="#FEFEFF" transform="translate(231.24560546875,73.725341796875)"/>
<path d="M0 0 C1.66289062 0.71349609 1.66289062 0.71349609 3.359375 1.44140625 C11.40143479 5.07642597 17.82402398 9.65183134 24 16 C24.54914063 16.51691406 25.09828125 17.03382813 25.6640625 17.56640625 C36.89743585 29.07010142 40.38563256 44.94517278 40.29907227 60.39697266 C40.1533181 66.38603022 39.43955495 71.47844502 37 77 C36.28650391 78.66289062 36.28650391 78.66289062 35.55859375 80.359375 C31.92357403 88.40143479 27.34816866 94.82402398 21 101 C20.48308594 101.54914063 19.96617187 102.09828125 19.43359375 102.6640625 C15.54164307 106.46455742 10.86709402 108.80288504 6.0625 111.25 C5.05981079 111.76264404 5.05981079 111.76264404 4.03686523 112.28564453 C-8.5127033 118.42956063 -23.70133412 119.09918577 -37.078125 115.08984375 C-54.8282838 108.46912944 -67.57682188 97.65564253 -75.8125 80.375 C-81.808094 67.0741942 -82.11477398 50.65153198 -77 37 C-69.9900841 20.01662652 -58.15868497 7.46285838 -41.13671875 0.1875 C-28.74691491 -4.50303595 -12.29398543 -5.43177658 0 0 Z " fill="#2592FF" transform="translate(276,199)"/>
</svg>
